<?xml version="1.0" encoding="UTF-8" standalone="no"?>
<!-- Created with Inkscape (http://www.inkscape.org/) -->

<svg
   version="1.1"
   id="svg1"
   width="484"
   height="500"
   viewBox="0 0 484 500"
   sodipodi:docname="palm tree.svg"
   inkscape:version="1.3.2 (091e20ef0f, 2023-11-25, custom)"
   xmlns:inkscape="http://www.inkscape.org/namespaces/inkscape"
   xmlns:sodipodi="http://sodipodi.sourceforge.net/DTD/sodipodi-0.dtd"
   xmlns="http://www.w3.org/2000/svg"
   xmlns:svg="http://www.w3.org/2000/svg">
  <defs
     id="defs1" />
  <sodipodi:namedview
     id="namedview1"
     pagecolor="#505050"
     bordercolor="#eeeeee"
     borderopacity="1"
     inkscape:showpageshadow="0"
     inkscape:pageopacity="0"
     inkscape:pagecheckerboard="0"
     inkscape:deskcolor="#505050"
     inkscape:zoom="2.5215428"
     inkscape:cx="264.71889"
     inkscape:cy="283.75485"
     inkscape:window-width="3840"
     inkscape:window-height="2121"
     inkscape:window-x="0"
     inkscape:window-y="39"
     inkscape:window-maximized="1"
     inkscape:current-layer="g1" />
  <g
     inkscape:groupmode="layer"
     inkscape:label="Image"
     id="g1">
    <path
       style="fill:#000000"
       d="m 144.78431,497.69164 c -4.34981,-0.85853 -10.94868,-3.6212 -11.75122,-4.91974 -0.24846,-0.40201 3.63212,-1.02082 8.62351,-1.37512 6.87866,-0.48826 10.39846,-0.25951 14.54204,0.94506 6.21491,1.80672 7.96195,1.30544 3.4971,-1.00342 -2.91778,-1.50885 -12.99535,-13.59238 -11.33593,-13.59238 1.15158,0 12.06911,7.65524 15.45538,10.83712 2.79808,2.6292 2.79808,2.6292 0.32556,-2.96161 -5.34156,-12.07821 -10.71066,-33.31247 -15.01316,-59.37551 -4.75066,-28.77787 -6.57319,-54.48068 -6.59444,-93 -0.0287,-52.07936 3.57896,-93.01339 11.96247,-135.73017 2.12677,-10.8366 2.86392,-16.90294 2.40369,-19.78106 -0.76012,-4.75355 -1.91198,-3.78049 -2.94845,2.49077 -0.8601,5.20418 -1.59669,6.35266 -2.53598,3.95408 -0.63755,-1.62806 -0.76832,-1.50224 -0.82749,0.79614 -0.0944,3.66717 -3.1398,11.10756 -4.12805,10.08553 -0.43359,-0.44841 -0.95508,-2.16529 -1.15887,-3.81529 -0.36675,-2.96945 -0.38184,-2.95927 -1.48232,1 -0.61148,2.2 -1.40211,5.7 -1.75695,7.77779 -0.35483,2.07778 -1.04476,3.53082 -1.53316,3.22897 -0.48841,-0.30186 -1.30642,0.19882 -1.8178,1.1126 -0.55768,0.99651 -1.42874,1.35307 -2.17651,0.89092 -0.94927,-0.58668 -1.11301,-4.49729 -0.68629,-16.3904 0.56043,-15.61988 0.56043,-15.61988 -0.78782,-4.11988 -2.39706,20.4458 -4.31824,29.96895 -6.04252,29.95231 -1.01582,-0.01 -0.96807,-17.30695 0.0654,-23.70231 0.28887,-1.7875 0.11279,-3.25 -0.39128,-3.25 -0.50406,0 -1.21242,2.23096 -1.57414,4.95769 -1.90043,14.32618 -15.6,52.66071 -15.6,43.65239 0,-0.76446 0.92137,-5.82696 2.04749,-11.25 2.48437,-11.96396 4.93461,-25.49582 4.86362,-26.86008 -0.11155,-2.14376 -3.14674,7.50915 -5.50257,17.5 -3.20146,13.57709 -4.32988,17 -5.60437,17 -0.69487,0 -0.80543,-2.8247 -0.33268,-8.5 0.38943,-4.675 0.47989,-8.5 0.20103,-8.5 -0.27886,0 -1.90126,5.9625 -3.60534,13.25 -3.37605,14.43767 -5.757176,21.75 -7.082496,21.75 -1.420609,0 -2.129888,-3.68326 -1.97466,-10.25433 0.08115,-3.43512 0.09407,-6.69567 0.02872,-7.24567 -0.235104,-1.97869 -2.901573,4.18195 -4.529944,10.46604 -0.914118,3.5277 -2.595427,8.24099 -3.736242,10.47398 -1.140815,2.23299 -2.456243,5.18498 -2.923173,6.55998 -2.123697,6.25378 0.359475,-15.34535 2.64024,-22.96534 2.910043,-9.72239 3.02556,-10.70711 1.06518,-9.08014 -0.794857,0.65967 -2.207082,3.52727 -3.138278,6.37244 -2.230415,6.8148 -6.624527,15.47527 -7.119407,14.03183 -1.04825,-3.0575 5.073364,-22.93911 8.731763,-28.35879 2.602944,-3.85609 4.112889,-7 3.361937,-7 -0.373752,0 -5.383281,4.8375 -11.132286,10.75 -5.749006,5.9125 -10.117097,10.075 -9.706869,9.25 0.410228,-0.825 1.542899,-2.4 2.517047,-3.5 0.974148,-1.1 3.680047,-5.6 6.013107,-10 4.488319,-8.46468 9.187094,-14.85489 14.876521,-20.23169 1.902086,-1.79757 3.014713,-3.26831 2.472506,-3.26831 -1.37007,0 -5.323695,2.73339 -9.180845,6.34729 -3.80103,3.56132 -4.017382,3.07723 -1.142886,-2.55725 2.302472,-4.51322 14.945146,-17.52641 19.831845,-20.41305 1.68357,-0.99452 3.06104,-2.17033 3.06104,-2.61292 0,-1.39306 -7.62128,3.01343 -12.469875,7.20986 -2.55847,2.21434 -4.877355,4.02607 -5.153079,4.02607 -1.001112,0 6.241969,-9.3524 10.946004,-14.13367 2.65267,-2.69623 6.92767,-5.99821 9.5,-7.33772 2.57232,-1.33952 4.0673,-2.45644 3.32218,-2.48205 -2.04622,-0.0703 -10.94101,4.62364 -15.292814,8.07033 -2.118828,1.67814 -3.852415,2.54657 -3.852415,1.92983 0,-2.10962 8.768179,-9.54344 17.636779,-14.95277 14.83437,-9.04811 16.56848,-10.22202 15.97569,-10.81482 -0.67278,-0.67278 -18.53052,7.81427 -22.72185,10.79875 -4.80005,3.41794 -3.22532,0.73777 2.53401,-4.31286 6.72247,-5.89525 21.22372,-15.64236 28.77186,-19.33921 3.13307,-1.53448 5.5116,-3.08912 5.28562,-3.45476 -0.22597,-0.36563 -2.45189,-0.35504 -4.94649,0.0235 -2.49459,0.37859 -4.53562,0.34574 -4.53562,-0.073 0,-0.41873 2.88823,-4.28415 6.41829,-8.58984 3.53006,-4.30569 6.25158,-7.99524 6.04781,-8.199 -0.20376,-0.20376 -2.2733,1.25828 -4.59898,3.24897 -4.31428,3.69287 -13.84556,8.97315 -14.68389,8.13482 -0.25504,-0.25504 1.13726,-2.23578 3.094,-4.40166 1.95674,-2.16587 4.10317,-4.99027 4.76985,-6.27643 1.16441,-2.24639 1.09876,-2.23437 -1.66747,0.30549 -2.86743,2.63277 -12.52287,8.85604 -13.74021,8.85604 -1.23962,0 -0.61605,-2.22404 1.4287,-5.09563 3.0036,-4.21817 0.9708,-3.55759 -3.61515,1.17479 -2.17412,2.24354 -4.74045,4.50937 -5.70295,5.03518 -3.51188,1.91854 -1.91961,-3.63758 2.5,-8.72355 4.2425,-4.88216 4.24382,-4.88619 0.75,-2.28273 -7.29403,5.43522 -20.116928,13.89194 -21.064314,13.89194 -1.754026,0 1.777818,-5.37832 6.566817,-10 5.596477,-5.40095 13.803007,-15.11586 10.989007,-13.00881 -1.09533,0.82015 -4.01651,3.13582 -6.49151,5.14593 -2.475,2.0101 -7.199999,5.02814 -10.499999,6.70674 -3.3,1.6786 -7.35,3.97246 -9,5.09748 -4.226542,2.88177 -5.332694,2.55166 -2.316544,-0.69134 3.077476,-3.30894 6.242023,-8.15786 5.686564,-8.71331 -0.220493,-0.2205 -3.656449,1.77745 -7.635458,4.43989 -3.979009,2.66243 -7.234562,4.44754 -7.234562,3.9669 0,-1.76294 6.422627,-8.1171 11.83742,-11.71123 6.271688,-4.16291 17.230399,-14.139975 15.592509,-14.195787 -1.092868,-0.03724 -11.717615,6.835877 -23.507933,15.207207 -7.763866,5.51248 -19.010214,12.00144 -19.665166,11.34649 -0.929382,-0.92938 2.475059,-4.5363 10.264572,-10.87507 8.154373,-6.63567 16.471219,-14.71509 15.147518,-14.71509 -0.405336,0 -5.572974,3.29822 -11.48364,7.32937 -10.983775,7.49109 -23.779015,14.41023 -24.785994,13.40325 -1.096117,-1.09612 1.541904,-4.41887 5.790945,-7.29406 8.093968,-5.47693 18.862387,-13.719276 18.455492,-14.12617 -0.551181,-0.551181 -12.241802,5.81488 -22.79934,12.41525 -8.229643,5.14502 -17.004472,8.78094 -18.231179,7.55423 -0.312116,-0.31212 2.909278,-2.71098 7.158656,-5.3308 10.33093,-6.36921 16.445871,-12.747863 7.92648,-8.26831 -3.702312,1.9467 -24.872468,7.47844 -25.648881,6.70203 -0.948366,-0.94836 4.348956,-4.2731 10.948541,-6.87158 6.980365,-2.74841 6.303657,-2.74731 -9.589472,0.0156 -6.417714,1.11568 -11.5125912,1.4837 -14.0000002,1.01126 -3.9105275,-0.74273 -3.9105275,-0.74273 5.1194532,-4.01731 4.96649,-1.801015 11.435235,-3.605382 14.374988,-4.009702 2.939754,-0.404319 8.186694,-2.064912 11.659868,-3.690206 3.473173,-1.625294 10.054429,-3.583978 14.625012,-4.352631 10.045328,-1.689363 18.343206,-5.47364 19.162829,-8.739276 0.317305,-1.264244 3.107767,-5.208401 6.201026,-8.764792 3.093259,-3.556391 6.580702,-7.816165 7.749873,-9.466165 2.125766,-3 2.125766,-3 -1.338906,0.02841 -1.905569,1.665622 -6.164671,5.875561 -9.464671,9.355419 -5.61753,5.9237 -18.077556,16.085127 -19.75,16.106563 -2.158515,0.02767 -0.277585,-5.245498 3.334987,-9.349597 2.246743,-2.552434 3.773769,-4.64079 3.393392,-4.64079 -0.380378,0 -4.293766,2.747485 -8.696419,6.105522 -4.402653,3.358037 -10.09218,6.978543 -12.643392,8.045568 -2.551212,1.067025 -5.426068,2.373354 -6.388568,2.902952 -3.278687,1.804038 -1.831871,-0.874183 2.294607,-4.247577 2.224533,-1.818556 7.758034,-6.914076 12.296669,-11.323378 28.998574,-28.172235 50.473911,-37.721569 70.805953,-31.484941 4.04402,1.240461 11.43315,3.275406 16.42028,4.522101 16.10045,4.024831 25.83701,10.294915 33.49267,21.568373 2.11425,3.113366 4.54063,5.927953 5.39195,6.254638 1.70918,0.655872 2.14482,-0.856287 0.53358,-1.85209 -0.55786,-0.344776 -1.96126,-2.483076 -3.11866,-4.751778 -2.10438,-4.124912 -2.10438,-4.124912 0.51429,-2.409098 4.53269,2.969935 2.91088,-0.199088 -3.53985,-6.916846 -4.74218,-4.938494 -5.70809,-6.413446 -4.2,-6.413446 1.07718,0 2.49101,0.5325 3.14184,1.183333 0.65084,0.650834 1.52834,0.814227 1.95,0.363096 0.42167,-0.451131 0.10237,-1.055064 -0.70955,-1.342073 -2.19622,-0.776351 -10.60152,-8.959952 -9.91144,-9.650024 0.32757,-0.327575 4.0363,1.133602 8.24162,3.247061 4.85582,2.440376 7.64604,3.377251 7.64604,2.567315 0,-0.701436 -1.21211,-2.083846 -2.69358,-3.072023 -2.94518,-1.964513 -14.30642,-12.985032 -14.30642,-13.877378 0,-1.059014 4.53404,0.834658 10.30864,4.305472 3.19475,1.9202 6.06285,3.237069 6.37354,2.926375 1.15674,-1.156736 -0.7289,-3.698274 -4.73608,-6.383486 -2.27163,-1.522217 -5.77631,-4.164933 -7.78817,-5.872701 -2.01186,-1.707768 -4.33293,-3.399352 -5.15793,-3.759077 -1.76587,-0.769971 4.47985,-0.01096 7.75,0.941821 4.61235,1.343837 2.06843,-1.68632 -5.72748,-6.822206 -4.38761,-2.890527 -7.98761,-5.52359 -8,-5.851249 -0.0329,-0.870072 13.66983,1.860729 16.24063,3.236577 2.15182,1.15162 2.15959,1.131343 0.47304,-1.234995 -2.96873,-4.1653193 -8.83362,-14.14173825 -8.50611,-14.46924565 0.63134,-0.63134395 6.6184,2.77353845 8.59438,4.88768255 1.11845,1.1966491 3.46431,4.8757255 5.21304,8.1757251 3.1795,6 3.1795,6 2.71766,-0.5 -0.25401,-3.5749996 -0.80098,-7.2874995 -1.21549,-8.2499995 -0.43755,-1.0160062 -0.32547,-1.75 0.26721,-1.75 0.56148,0 2.58733,4.8375 4.50191,10.7499995 3.48104,10.75 3.48104,10.75 3.685,2.25 0.20395,-8.4999995 0.20395,-8.4999995 1.65917,-4 0.80037,2.475 1.72398,7.80421 2.05248,11.842688 0.57033,7.011668 0.65361,7.208677 1.84716,4.370048 2.26275,-5.381491 3.29234,-4.607815 2.71057,2.036829 -0.52283,5.971536 -2.05627,12.954233 -3.78828,17.250435 -0.44347,1.1 1.04981,-0.025 3.31839,-2.5 4.91088,-5.357723 5.2314,-4.215973 1.26944,4.521957 -2.78888,6.150737 -2.80726,8.285012 -0.0427,4.953877 2.39312,-2.883542 2.08374,-0.680481 -1.04309,7.427672 -1.72357,4.469362 -2.96928,8.619572 -2.76824,9.222689 0.20104,0.603117 2.09665,-3.341047 4.21246,-8.764809 4.02735,-10.323882 8.92431,-19.83885 10.81005,-21.0043 0.72395,-0.447425 0.88015,-0.08974 0.45015,1.030807 -1.27475,3.321969 1.23566,0.510283 4.8357,-5.416022 1.99877,-3.290341 4.53417,-6.464122 5.63422,-7.052848 1.80039,-0.96354 1.89268,-0.869735 0.92439,0.939542 -2.14124,4.000929 -1.01011,4.350981 1.74966,0.541474 3.14131,-4.336185 15.17464,-15.147671 15.17464,-13.633842 0,0.530247 -0.9513,2.17347 -2.114,3.651607 -1.16271,1.478136 -1.91083,2.8907 -1.6625,3.13903 0.24833,0.248329 3.11213,-1.308188 6.36401,-3.458928 4.01297,-2.654123 8.2822,-4.43551 13.28853,-5.5448 4.05682,-0.8989 7.55235,-1.458055 7.76783,-1.242566 0.21549,0.215489 -2.42872,1.88042 -5.87603,3.699848 -6.73951,3.556988 -20.63361,13.056176 -20.71705,14.163926 -0.0279,0.370872 2.49824,-0.221597 5.61371,-1.316598 6.83793,-2.403338 15.96366,-3.68311 14.98625,-2.101639 -0.3643,0.589459 -3.92226,2.2851 -7.90656,3.768092 -11.54362,4.296633 -11.63177,4.35534 -5.74419,3.825659 5.5,-0.494813 5.5,-0.494813 -4.46463,3.62564 -5.48054,2.266249 -10.20554,4.374752 -10.5,4.685564 -0.56136,0.59254 9.19438,-0.446362 12.21463,-1.300754 0.9625,-0.272279 1.75,-0.0433 1.75,0.508849 0,0.552146 -5.0625,2.944971 -11.25,5.317388 -10.74391,4.11944 -11.07006,4.328293 -7.25,4.642646 2.2,0.181038 5.73131,-0.187652 7.84736,-0.819311 5.24377,-1.565313 5.44296,-0.829546 0.67075,2.477598 -2.20996,1.531504 -4.01811,3.090547 -4.01811,3.464539 0,0.373992 -2.49761,1.715185 -5.55023,2.98043 -6.55419,2.716559 -6.55705,3.973612 -0.004,1.74075 6.42314,-2.188581 5.68099,-0.362785 -0.9458,2.326833 -6.64789,2.698182 -7.2989,4.445726 -0.94363,2.533073 6.80717,-2.048659 5.15733,0.44695 -2.13178,3.224601 -5.92459,2.257673 -5.92459,2.257673 -1.42459,1.702214 4.5,-0.55546 4.5,-0.55546 0.5,1.383196 -2.2,1.066261 -4.9,2.669667 -6,3.563125 -1.93245,1.569606 -1.89868,1.604763 1,1.041 2.89431,-0.562912 2.92954,-0.526672 1,1.028702 -1.1,0.886693 -4.3625,2.299283 -7.25,3.139088 -2.8875,0.839805 -5.25,1.74756 -5.25,2.017232 0,0.269673 2.1375,0.221902 4.75,-0.106159 4.75,-0.596473 4.75,-0.596473 2.27595,1.188727 -7.89412,5.69616 -10.69037,8.279113 -13.68854,12.644392 -1.83558,2.672556 -3.32033,5.822556 -3.29945,6.999996 0.0287,1.62042 3.73575,-1.64129 15.25,-13.418098 11.54181,-11.804991 16.78031,-18.037853 21.71204,-25.833406 8.97295,-14.183466 13.18632,-19.451776 18.45675,-23.077923 7.12805,-4.904227 11.87257,-6.115947 28.01514,-7.154879 8.50232,-0.547207 18.19826,-1.808651 22.43834,-2.919234 11.23031,-2.941497 11.53716,-2.367576 1.33977,2.505892 -5.0875,2.431385 -9.25,4.730341 -9.25,5.108791 0,0.37845 3.15,0.377698 7,-0.0017 4.00415,-0.394559 7,-0.303612 7,0.212502 0,1.233011 -6.87404,3.196819 -11.61602,3.318519 -2.13619,0.05482 -5.00898,0.422447 -6.38398,0.81694 -2.08303,0.597629 -1.63121,0.836022 2.7089,1.429311 2.8649,0.391628 5.47947,1.149847 5.81018,1.684932 1.10373,1.785883 -4.85704,3.174965 -10.9753,2.557654 -6.45866,-0.651656 -6.52023,0.377508 -0.14463,2.417458 6.60562,2.113545 1.99013,3.306592 -7.45131,1.926071 -4.42085,-0.646415 -8.27602,-0.937199 -8.56703,-0.646188 -0.29101,0.291012 1.95635,1.251656 4.99414,2.134766 7.38734,2.147558 8.62524,4.105808 2.02488,3.203195 -9.72632,-1.330096 -21.94778,-1.794092 -24.22151,-0.919587 -1.83723,0.706618 -0.37656,1.157614 7,2.161319 11.9337,1.623781 13.52926,2.066419 11.70381,3.246847 -0.76017,0.491564 -5.05519,0.608685 -9.54448,0.26027 -7.41944,-0.575826 -14.25945,0.03887 -13.11931,1.179001 0.40654,0.406545 14.86356,2.626665 28.28166,4.343129 4.59987,0.588422 4.8252,0.738262 2.81574,1.872404 -1.20134,0.678039 -5.02634,1.279982 -8.5,1.337651 -6.26651,0.104037 -6.28715,0.113779 -2.64758,1.25 2.01748,0.629831 3.96216,1.439825 4.3215,1.799986 1.36345,1.36655 -5.30304,1.862656 -12.00846,0.893644 -3.83966,-0.554876 -8.1062,-0.994592 -9.4812,-0.977146 -2.1534,0.02732 -1.98011,0.24736 1.25,1.587145 4.37201,1.813423 5.05758,3.857015 1,2.98087 -1.5125,-0.326591 -7.025,-0.886673 -12.25,-1.244628 -7.88639,-0.540281 -9.28721,-0.42478 -8.24721,0.680009 0.70216,0.745912 4.18965,1.517841 7.93483,1.756316 5.95724,0.379329 6.47856,0.574272 4.80608,1.797216 -1.03178,0.754454 -2.68995,1.371735 -3.68483,1.371735 -0.99488,0 -1.80887,0.572376 -1.80887,1.271946 0,0.773907 -2.57605,1.760619 -6.57898,2.519967 -3.61843,0.686412 -8.23093,2.077033 -10.25,3.09027 -2.01906,1.013237 -6.82102,2.858946 -10.67102,4.101575 -4.18958,1.352233 -8.29882,3.487924 -10.23502,5.319428 -1.77926,1.68306 -3.06577,3.22936 -2.8589,3.43623 0.20686,0.20686 2.57739,-0.97834 5.26782,-2.63378 2.69044,-1.65545 8.07943,-4.3664 11.97554,-6.024342 9.1425,-3.890483 38.54162,-11.874933 48.85056,-13.267227 10.81976,-1.461285 30.1075,-0.452147 39.77889,2.081237 11.17674,2.927703 11.62749,3.604696 2.40008,3.604696 -4.94931,0 -8.96872,0.506607 -10.17897,1.282961 -1.67085,1.071818 -0.42131,1.177621 7.59253,0.642887 7.74838,-0.517021 10.15148,-0.335617 12.5,0.943591 2.9263,1.593919 8.40747,6.147548 8.40747,6.984727 0,0.247554 -2.11805,-0.187343 -4.70679,-0.966437 -4.688,-1.410881 -8.5994,-1.301772 -4.79321,0.133707 10.806,4.07541 14.84057,6.84339 29.68435,20.36541 2.64861,2.41276 4.81565,4.06092 4.81565,3.66257 0,-0.39834 -3.2625,-4.6281 -7.25,-9.39945 -10.92571,-13.073477 -10.65151,-12.691281 -8.14893,-11.35821 3.27298,1.74346 12.64012,12.29786 17.79123,20.04625 5.41872,8.15091 12.53332,22.85463 15.53666,32.10956 1.95839,6.03486 3.2975,8.00026 5.47603,8.03713 0.49774,0.008 0.0905,-0.88469 -0.90499,-1.98469 -2.21149,-2.44367 -1.33603,-2.5634 2.28518,-0.31253 2.54718,1.58327 2.51305,1.47115 -0.55276,-1.81575 -1.79717,-1.92677 -2.97055,-3.80026 -2.6075,-4.1633 0.36304,-0.36305 0.0818,-1.35684 -0.62492,-2.20842 -1.93374,-2.33001 -0.56591,-2.84401 2.85741,-1.07374 4.67165,2.4158 4.9753,1.88451 0.86115,-1.50672 -2.05543,-1.69426 -3.50382,-3.45798 -3.21866,-3.91938 0.28517,-0.46141 -0.1928,-1.5502 -1.06214,-2.41954 -2.22569,-2.2257 -0.20157,-1.96383 4.00508,0.51815 5.11713,3.01918 4.38552,0.95937 -0.92303,-2.59877 -2.46171,-1.65 -4.48573,-3.38926 -4.49782,-3.86501 -0.0121,-0.47576 1.10301,-0.13826 2.47801,0.75 1.375,0.88825 3.625,2.34176 5,3.23002 5.12124,3.30834 2.28117,0.31091 -3.29029,-3.4726 -5.5118,-3.74299 -9.22054,-7.14241 -7.79232,-7.14241 0.36426,0 2.55686,0.92545 4.87245,2.05655 4.21016,2.05656 4.21016,2.05656 1.71016,-0.0602 -2.5,-2.11675 -2.5,-2.11675 0.84293,-0.48282 5.05969,2.47303 4.71204,1.29156 -0.98315,-3.34127 -5.67094,-4.6131 -5.42484,-5.5998 0.40809,-1.63622 2.05267,1.39483 3.73213,2.17496 3.73213,1.73363 0,-0.44133 -2.50614,-2.30141 -5.56921,-4.13351 -6.69111,-4.00213 -6.5963,-5.04529 0.17768,-1.95468 7.26929,3.3166 7.30248,3.30717 1.89153,-0.537 -7.29347,-5.1816 -10.13681,-7.59706 -8.97251,-7.62226 0.56513,-0.0122 2.02763,0.67829 3.25,1.53447 2.34386,1.6417 3.0646,0.68539 1.02251,-1.3567 -1.91457,-1.91457 0.10807,-1.39025 3.54563,0.91912 1.7349,1.16552 0.67937,-0.165 -2.34563,-2.9567 -6.15513,-5.68045 -5.58387,-6.8168 1.02147,-2.03191 4.32154,3.13051 4.32154,3.13051 1.48764,-1.75 -1.55865,-2.68429 -3.87391,-6.42993 -5.14502,-8.32367 -1.27111,-1.893735 -2.11878,-3.635484 -1.88372,-3.870553 1.03246,-1.032458 8.8257,6.465283 11.09981,10.678943 2.50138,4.63477 2.50138,4.63477 2.07108,0.13476 -0.23667,-2.475 -0.75859,-5.4 -1.15981,-6.499996 -0.40123,-1.1 0.45574,-0.326537 1.90438,1.718806 1.50526,2.1253 2.89972,5.76754 3.25428,8.50001 0.70182,5.40869 2.23694,9.16192 2.36459,5.78119 0.0415,-1.1 0.72201,-3.35 1.51217,-5 1.3593,-2.83843 1.42355,-2.5504 1.19304,5.348 -0.21375,7.324 -0.0944,7.99866 0.97312,5.5 0.66922,-1.5664 1.23706,-3.88706 1.26187,-5.15702 0.0592,-3.02887 2.0451,-1.78693 2.0451,1.27894 0,1.29354 -0.85281,5.09198 -1.89514,8.44098 -1.04232,3.34901 -1.54111,6.0891 -1.10841,6.0891 0.43271,0 1.08242,-1.1781 1.44381,-2.618 0.36139,-1.4399 0.86498,-2.41009 1.11909,-2.15599 0.2541,0.25411 -0.2226,2.4024 -1.05935,4.77399 -0.83674,2.37159 -1.29155,4.54178 -1.01068,4.82266 0.78632,0.78631 1.11805,0.12494 3.13518,-6.25039 1.93811,-6.12563 4.39728,-8.61711 4.34845,-4.4056 -0.0149,1.28333 -1.35794,5.45388 -2.98457,9.26789 -3.25021,7.62089 -2.80635,7.63634 1.87919,0.0654 4.41295,-7.13047 3.85891,-3.38984 -0.97059,6.5529 -4.59457,9.4591 -6.05323,12.9471 -5.41438,12.9471 0.2382,0 1.68398,-2.13448 3.21284,-4.74329 1.84819,-3.15369 2.8874,-4.18434 3.10096,-3.07542 0.403,2.09262 -2.65603,8.13793 -6.65741,13.15647 -3.14004,3.93824 -4.72346,7.4111 -3.80006,8.3345 0.28685,0.28685 1.46209,-1.32206 2.61163,-3.57536 1.14955,-2.25329 2.53952,-4.0969 3.08882,-4.0969 1.7521,0 -0.11204,5.19941 -5.15826,14.38723 -2.68461,4.88798 -4.88112,9.09369 -4.88112,9.34601 0,0.25232 -1.60326,3.8373 -3.56279,7.96663 -1.95954,4.12933 -3.36596,7.70471 -3.12539,7.94528 0.44353,0.44353 4.15232,-6.10042 9.8146,-17.31731 1.89505,-3.75405 3.60761,-5.9834 4.37127,-5.69036 0.74272,0.28501 1.53824,-0.6445 1.94764,-2.27568 0.54119,-2.15626 0.8918,-2.44181 1.60807,-1.30965 0.73446,1.16093 0.92573,1.05151 0.96522,-0.55215 0.0271,-1.1 0.96079,-3.8 2.0749,-6 2.02566,-4 2.02566,-4 1.48113,-0.70029 -0.33655,2.03938 -0.16833,3.06721 0.44041,2.69098 0.54172,-0.3348 0.98494,-1.56509 0.98494,-2.73398 0,-2.21924 3.93969,-11.15036 4.61898,-10.47106 0.21452,0.21452 -0.10268,1.80344 -0.70489,3.53094 -0.60221,1.7275 -0.88472,3.71297 -0.6278,4.41216 0.25692,0.69919 0.81756,-0.0788 1.24586,-1.72875 0.95816,-3.69118 8.41776,-15.58905 8.44685,-13.47251 0.0115,0.84012 -0.70608,2.56555 -1.59473,3.83427 -1.06235,1.51672 -1.27788,2.64463 -0.62928,3.29322 0.64859,0.6486 2.07799,-0.78754 4.17349,-4.19317 3.94274,-6.40776 5.15317,-5.90207 1.64533,0.68738 -3.0959,5.81564 -3.4287,8.27883 -0.45272,3.35081 2.91132,-4.82096 10.81143,-14 12.04935,-14 0.55869,0 -0.74965,2.1375 -2.90743,4.75 -5.66298,6.8564 -6.23355,8.60787 -0.89586,2.75 2.50581,-2.75 4.5733,-4.5275 4.59443,-3.95 0.0211,0.5775 -0.49408,1.5825 -1.14491,2.23333 -0.65084,0.65084 -0.90169,1.46498 -0.55745,1.80922 0.34424,0.34424 2.18315,-1.78576 4.08646,-4.73333 3.42547,-5.30487 8.72563,-9.99431 7.29931,-6.45824 -0.35475,0.87946 -0.95898,2.38652 -1.34275,3.34902 -0.38377,0.9625 1.48577,-0.16795 4.15455,-2.51212 4.83059,-4.24302 7.50706,-5.06539 4.04876,-1.24401 -2.30146,2.54308 -1.43969,2.5462 2.72028,0.01 1.80079,-1.09795 4.39215,-1.99795 5.75857,-2 2.41926,-0.004 2.40373,0.0421 -0.59238,1.74626 -8.93177,5.08019 -11.39202,6.69843 -11.39202,7.49316 0,0.48118 0.50308,0.56395 1.11795,0.18394 1.19096,-0.73605 7.88205,-2.39538 7.88205,-1.95468 0,0.89046 -8.11966,5.39495 -10.77673,5.97854 -5.62066,1.23451 -4.43649,2.37341 2.0263,1.94884 7.07735,-0.46495 4.72662,0.97613 -3.36454,2.06257 -2.53824,0.34082 -5.46324,1.24921 -6.5,2.01864 -1.66831,1.23812 -1.19522,1.3429 4.11497,0.91138 6,-0.48759 6,-0.48759 2.21894,1.59983 -2.07958,1.14809 -4.19638,1.83074 -4.70401,1.51701 -1.20974,-0.74767 -6.01493,0.4713 -6.01493,1.52585 0,0.45005 0.7875,1.00443 1.75,1.23197 1.18338,0.27975 -0.0308,1.27167 -3.75,3.06355 -4.63128,2.23132 -5.06564,2.6514 -2.75,2.65963 1.5125,0.005 2.75,0.45977 2.75,1.00977 0,1.054 -2.21987,1.37589 -8,1.16002 -2.85448,-0.10661 -3.13113,0.038 -1.5,0.78435 1.1,0.50328 3.6875,0.94669 5.75,0.98534 6.39089,0.11979 4.12433,2.06573 -2.5,2.14637 -6.25,0.0761 -6.25,0.0761 -2.75,1.42392 1.925,0.74131 2.9375,1.38208 2.25,1.42392 -0.6875,0.0418 -1.25,0.50426 -1.25,1.0276 0,0.52333 4.77172,-1.27667 10.60383,-4 11.41026,-5.32809 11.39735,-5.32333 11.3938,-4.20152 -10e-4,0.4125 -2.54322,2.0777 -5.64869,3.70044 -3.10547,1.62274 -5.16301,3.11153 -4.57232,3.30843 0.59069,0.1969 3.00686,-0.62809 5.36927,-1.8333 2.67087,-1.36257 6.76462,-2.34397 10.8247,-2.59501 6.52941,-0.40372 6.52941,-0.40372 1.66655,1.57906 -2.67458,1.09053 -5.0969,2.2168 -5.38293,2.50284 -0.28604,0.28604 3.97367,0.2463 9.46601,-0.0883 5.52391,-0.33653 10.22762,-0.20975 10.52664,0.28373 0.2973,0.49067 -1.84962,0.96155 -4.77094,1.04642 -8.53948,0.24807 -9.89393,1.92407 -2.14007,2.64814 7.93187,0.74069 21.82,4.63637 21.03822,5.90131 -0.31046,0.50234 -1.87163,0.62624 -3.46927,0.27534 -4.49171,-0.98655 -3.45957,0.12031 2.77291,2.97364 7.17392,3.28432 23.0623,13.8006 21.59129,14.29094 -1.219,0.40633 -12.15749,-4.8591 -16.57657,-7.97942 -4.26667,-3.0127 -4.30453,-1.4144 -0.0496,2.09289 6.34124,5.22699 3.12164,4.42638 -3.90866,-0.97195 -3.64432,-2.79835 -7.0863,-4.9298 -7.64886,-4.73655 -0.56255,0.19325 2.79908,4.57789 7.47029,9.74365 4.67122,5.16576 8.29569,9.58972 8.05439,9.83102 -0.72753,0.72754 -4.54495,-1.66973 -8.84475,-5.55434 -3.7911,-3.42503 -4.01138,-3.50176 -3.35165,-1.16747 0.68766,2.43312 0.63261,2.41927 -2.10374,-0.52917 -1.54543,-1.66522 -4.15988,-4.7455 -5.80988,-6.84508 -1.65,-2.09957 -3.86792,-4.28349 -4.9287,-4.85315 -1.7296,-0.92883 -1.69975,-0.73835 0.28915,1.84508 4.49712,5.8414 7.41897,10.43473 6.9414,10.9123 -0.26996,0.26996 -3.34397,-2.71945 -6.83113,-6.64314 -6.41345,-7.21628 -15.82898,-15.36341 -16.72258,-14.46981 -0.26752,0.26752 1.52514,2.78589 3.98368,5.59637 5.22841,5.97686 9.41637,12.9851 7.75959,12.9851 -0.62511,0 -0.20391,1.18569 0.93601,2.63486 1.13992,1.44917 2.07258,3.25922 2.07258,4.02234 0,0.76312 1.9125,3.48445 4.25,6.04742 4.1984,4.60335 3.85352,4.81908 -1.4877,0.93055 -1.50574,-1.0962 -3.00678,-1.72403 -3.33565,-1.39516 -0.32887,0.32887 0.34243,1.10122 1.49178,1.71633 2.87685,1.53965 13.72321,11.30552 16.36366,14.73355 2.2604,2.93464 1.92028,2.75968 -5.03209,-2.58856 -2.3375,-1.79816 -4.25,-3.03395 -4.25,-2.74618 0,0.28777 1.87451,2.68808 4.16557,5.33403 3.95073,4.56271 6.76864,9.7506 8.31637,15.31082 0.52196,1.87512 0.0139,1.5002 -2.03256,-1.5 -3.18973,-4.67626 -7.52046,-9.5 -8.52903,-9.5 -0.38801,0 1.05365,3.4875 3.20368,7.75 2.15003,4.2625 4.16689,9.325 4.48191,11.25 0.57277,3.5 0.57277,3.5 -2.07327,-0.75 -3.36584,-5.40614 -4.87399,-5.46886 -2.98831,-0.12427 1.55259,4.40051 2.01332,14.33697 0.62499,13.47893 -0.45687,-0.28236 -1.43987,-3.12141 -2.18447,-6.30902 -1.26519,-5.41627 -1.39945,-5.59927 -2.05103,-2.79564 -0.38347,1.65 -0.75735,5.25 -0.83085,8 -0.19617,7.3402 -1.67538,8.74293 -2.4467,2.32019 -0.3514,-2.92611 -0.69001,-7.12019 -0.75246,-9.32019 -0.11355,-4 -0.11355,-4 -1.26714,-0.29156 -2.32986,7.4898 -3.21628,6.13667 -2.93068,-4.47371 0.27549,-10.23473 0.27549,-10.23473 -2.00399,-2.23473 -1.25372,4.4 -2.81088,8.9 -3.46035,10 -1.02912,1.74299 -1.18477,1.41321 -1.21127,-2.56634 -0.0167,-2.51149 0.44739,-7.15098 1.03136,-10.30999 1.6598,-8.97869 0.62285,-9.89952 -1.82843,-1.62367 -2.22148,7.5 -2.22148,7.5 -1.82193,-0.7506 0.43945,-9.07457 -0.55217,-9.99957 -2.41141,-2.2494 -0.66053,2.75339 -1.60574,5.25634 -2.10048,5.5621 -1.77433,1.09659 -0.90134,-11.11751 1.6662,-23.3121 0.37727,-1.79186 0.27495,-3.25 -0.22807,-3.25 -0.50179,0 -2.38387,4.48941 -4.1824,9.97646 -4.04652,12.34534 -5.59824,13.81205 -4.6438,4.38942 0.64406,-6.35841 0.5793,-6.71806 -0.87619,-4.86588 -0.86441,1.1 -1.58596,2.5625 -1.60346,3.25 -0.0175,0.6875 -0.53058,1.25 -1.14021,1.25 -0.6561,0 -0.87368,-0.9352 -0.5332,-2.29178 0.31636,-1.26048 0.81164,-4.97298 1.10063,-8.25 0.52543,-5.95822 0.52543,-5.95822 -1.50257,0.29178 -2.78902,8.59534 -4.32988,8.15651 -3.51127,-1 0.64816,-7.25 0.64816,-7.25 -1.34962,-3 -2.70346,5.75126 -4.14487,5.462 -3.41677,-0.68568 0.32151,-2.71462 0.24918,-5.75212 -0.16073,-6.75 -0.59598,-1.45084 -0.98644,-1.01296 -1.94897,2.18568 -1.36145,4.52431 -1.87053,3.70752 -3.11633,-5 -0.83645,-5.84631 -1.06271,-5.39478 -2.00443,4 -0.70219,7.00509 -2.09352,7.00509 -2.46823,0 -0.16048,-3 -0.16048,-3 -1.10811,0.28564 -1.16222,4.0296 -2.87199,3.29505 -2.87199,-1.23387 0,-1.88439 -0.87188,-4.35514 -2.00824,-5.69099 -2.00824,-2.36078 -2.00824,-2.36078 -1.46566,3.13922 0.46151,4.67811 0.35066,5.22273 -0.74176,3.64452 -0.70638,-1.02051 -2.52184,-3.44489 -4.03434,-5.38751 -1.5125,-1.94261 -2.75,-3.92014 -2.75,-4.39452 0,-0.47437 -0.38958,-0.86249 -0.86572,-0.86249 -0.48081,0 -0.50017,1.88965 -0.0436,4.25 0.4522,2.3375 0.84178,4.50198 0.86573,4.80995 0.0239,0.30798 3.06291,2.55798 6.75324,5 8.59883,5.69017 17.2344,13.69604 23.05776,21.37643 2.52863,3.33499 6.29176,7.94043 8.36252,10.23431 6.18699,6.85363 16.26817,27.75365 17.36972,36.01043 0.49517,3.7115 0.38167,4.47418 -0.4939,3.31888 -0.94923,-1.2525 -1.05146,-1.17 -0.61958,0.5 1.01691,3.93222 2.72806,18.71906 2.22447,19.22266 -0.28234,0.28233 -0.79783,-0.77726 -1.14553,-2.35466 -1.33547,-6.05849 -1.84173,-5.59637 -2.57219,2.34792 -0.41549,4.51875 -1.20693,9.01875 -1.75877,10 -0.74339,1.32187 -0.85877,0.69897 -0.44535,-2.40433 0.72485,-5.441 -0.59967,-21.31159 -1.77861,-21.31159 -0.50062,0 -0.95343,1.2375 -1.00623,2.75 -0.0528,1.5125 -0.68675,5 -1.40878,7.75 -1.30301,4.96275 -1.30931,4.93295 -0.84566,-4 0.25692,-4.95 0.0655,-11.025 -0.42537,-13.5 -0.86617,-4.36731 -0.91327,-4.23462 -1.5971,4.5 -0.97806,12.49269 -1.42483,14.87091 -3.20794,17.07627 -1.49539,1.8495 -1.53557,1.82727 -1.04125,-0.57627 0.68794,-3.345 1.01904,-21.9364 0.40167,-22.55377 -0.26829,-0.26828 -1.77059,2.33406 -3.33846,5.78299 -3.73008,8.20526 -4.10939,5.60201 -1.06493,-7.30881 1.35145,-5.73121 2.27482,-10.60274 2.05193,-10.82563 -0.22289,-0.22289 -1.99603,2.9271 -3.94031,6.99998 -3.03556,6.35888 -3.8215,6.21421 -1.87292,-0.34476 0.98047,-3.3003 -1.21232,-1.75217 -2.47872,1.75 -2.22186,6.14445 -3.48112,4.22694 -2.79104,-4.25 0.347,-4.2625 0.87613,-9.1 1.17585,-10.75 0.29972,-1.65 -0.43027,-0.525 -1.62219,2.5 -3.30726,8.3935 -3.94421,8.33962 -2.95535,-0.25 0.36408,-3.1625 0.34594,-5.75 -0.0403,-5.75 -0.38625,0 -1.51136,2.25 -2.50024,5 -0.98889,2.75 -2.19146,5 -2.67239,5 -0.83107,0 -0.15829,-9.3877 0.95855,-13.37523 1.02202,-3.64898 -1.35589,-0.66429 -2.68905,3.37523 -2.07035,6.27324 -3.24845,5.98197 -2.57992,-0.63785 0.43775,-4.33467 0.32511,-5.34102 -0.43229,-3.86215 -0.77266,1.50865 -0.88304,0.77163 -0.44929,-3 0.31626,-2.75 0.76833,-7.475 1.0046,-10.5 0.42957,-5.5 0.42957,-5.5 -1.05788,-1.02687 -0.8181,2.46023 -1.58528,5.75694 -1.70484,7.32603 -0.22485,2.95093 -1.78038,4.97695 -1.78038,2.31887 0,-1.5907 -1.78934,-3.16202 -2.63629,-2.31507 -0.27678,0.27677 0.43731,2.34684 1.58685,4.60013 1.14955,2.2533 1.86611,4.09691 1.59236,4.09691 -0.27375,0 -3.653,-3.99998 -7.50943,-8.88883 -3.85644,-4.88886 -7.71498,-9.15871 -8.57454,-9.48855 -1.95928,-0.75185 -1.56247,-0.0948 5.35376,8.86431 5.41057,7.00875 10.19054,15.33081 10.18355,17.72983 -0.002,0.70578 -0.84503,-0.0668 -1.87329,-1.71676 -1.02825,-1.65 -3.35337,-4.35 -5.16692,-6 -3.29738,-3 -3.29738,-3 -1.1654,0.5 7.20793,11.83304 8.20501,16.23735 1.26418,5.58415 -3.79294,-5.82162 -7.05483,-9.6715 -7.05483,-8.32654 0,0.27638 1.82361,4.09656 4.05247,8.4893 3.05464,6.02021 3.88774,8.64312 3.38346,10.65234 -0.65059,2.59218 -0.76426,2.51327 -4.12955,-2.86685 -4.17494,-6.67453 -5.95232,-7.24689 -3.20292,-1.03141 1.09505,2.47554 2.20144,6.86304 2.45865,9.75 0.46764,5.24901 0.46764,5.24901 -1.40534,0.23732 -2.49852,-6.68555 -6.17393,-13.80448 -6.80253,-13.17589 -0.27843,0.27843 0.87797,4.82742 2.56977,10.10887 3.03738,9.48208 3.95579,16.57871 2.14554,16.57871 -0.51174,0 -1.12546,-1.0125 -1.36382,-2.25 -0.26912,-1.39727 -0.52275,-0.73404 -0.66923,1.75 -0.20931,3.54968 -0.326,3.71855 -1.0365,1.5 -0.44035,-1.375 -0.84549,-4.43906 -0.90032,-6.80902 -0.15319,-6.62241 -1.66785,-4.15039 -1.83229,2.99044 -0.12536,5.44337 -2.67383,14.74547 -3.74604,13.67326 -0.19882,-0.19882 -0.0301,-3.17245 0.37505,-6.60808 0.40509,-3.43563 0.48162,-6.24598 0.17007,-6.24521 -0.31156,7.6e-4 -1.33453,2.61532 -2.27328,5.81013 -1.11723,3.80227 -3.14598,7.44376 -5.87322,10.54206 -2.29153,2.60332 -4.35503,4.54469 -4.58556,4.31416 -0.23052,-0.23052 0.72493,-3.00606 2.12323,-6.16787 2.75258,-6.22407 3.27167,-9.04441 1.15032,-6.24987 -2.37994,3.13518 -2.82789,1.84193 -0.60681,-1.75187 3.41184,-5.52046 1.78655,-6.296 -2.42454,-1.15692 -3.66878,4.47725 -5.57661,5.74088 -5.57661,3.69359 0,-0.53087 1.28401,-2.44337 2.85335,-4.25 1.56934,-1.80664 3.39133,-4.4098 4.04886,-5.7848 1.00694,-2.10569 0.74257,-1.9874 -1.67618,0.75 -5.17466,5.85638 -5.22252,2.74445 -0.0599,-3.89391 4.50392,-5.79133 3.34286,-5.47466 -3.90226,1.06432 -3.70486,3.34377 -7.07986,6.07959 -7.5,6.07959 -2.25229,0 0.15601,-3.18249 8.26508,-10.922 4.96593,-4.73961 9.91297,-9.95859 10.99341,-11.59774 3.96897,-6.02131 1.79983,-5.75508 -4.77237,0.58573 -3.7125,3.58179 -7.7625,7.35196 -9,8.37816 -4.06196,3.3684 -2.62849,-0.64591 2.78352,-7.79502 2.76844,-3.65702 4.68908,-6.64913 4.2681,-6.64913 -0.42099,0 -3.05053,2.475 -5.84343,5.5 -5.98417,6.48148 -8.60963,7.28426 -4.97073,1.51987 1.3819,-2.18907 2.51254,-4.32988 2.51254,-4.75736 0,-0.42748 2.475,-3.61511 5.5,-7.08363 7.76153,-8.8995 6.99628,-9.45919 -1.75,-1.27989 -5.79254,5.41704 -4.71264,1.44093 1.75,-6.44339 3.025,-3.69045 5.5,-7.14722 5.5,-7.6817 0,-0.53448 -2.7,1.36726 -6,4.2261 -6.4999,5.63096 -7.42376,5.55952 -3.46395,-0.26787 3.23972,-4.76767 2.44701,-4.76057 -1.99553,0.0179 -4.00774,4.31075 -4.76973,2.72813 -1.04052,-2.16111 2.94035,-3.855 3.337,-6.17346 0.46673,-2.72811 -3.10688,3.72938 -2.29129,1.01093 1.28327,-4.27724 5.79924,-8.57935 9.75,-14.97728 9.75,-15.7893 0,-1.73311 -1.66155,-0.63721 -3.33881,2.20218 -1.85688,3.14345 -10.8725,12.1256 -11.52043,11.47767 -0.2068,-0.20679 2.08268,-3.88556 5.08772,-8.17504 5.35596,-7.64526 9.25623,-14.29905 8.38171,-14.29905 -0.24264,0 -3.01488,2.5875 -6.16052,5.75 -3.19489,3.21201 -4.99775,4.55171 -4.08451,3.03518 0.89916,-1.49315 1.63484,-3.52415 1.63484,-4.51335 0,-0.98919 1.61233,-4.19269 3.58295,-7.1189 1.97062,-2.9262 3.3405,-5.56281 3.04418,-5.85913 -0.29632,-0.29632 -2.77631,3.00385 -5.51108,7.33372 -2.73478,4.32986 -7.02966,11.12911 -9.54419,15.10943 -2.51452,3.98032 -4.57186,7.86294 -4.57186,8.62803 0,0.76509 -0.87042,2.00846 -1.93427,2.76305 -2.92042,2.07143 -15.25561,24.52097 -22.45764,40.87197 -8.94431,20.30656 -10.38329,24.54217 -31.59526,93 -8.84995,28.56164 -16.54679,58.02396 -15.14693,57.98015 0.34876,-0.0109 1.9841,-2.32045 3.6341,-5.1323 3.36497,-5.73442 9.97242,-12.96709 13.601,-14.88796 1.94527,-1.02978 1.80461,-0.71089 -0.7437,1.68605 -4.6144,4.34029 -18.3573,26.03917 -18.3573,28.98463 0,0.39064 2.51276,-2.06643 5.5839,-5.46016 3.07115,-3.39372 6.0659,-6.17041 6.65499,-6.17041 0.5891,0 0.36644,0.7875 -0.4948,1.75 -0.86123,0.9625 -4.08098,5.26484 -7.15498,9.56076 -5.53192,7.73085 -5.58911,7.88368 -5.58911,14.93709 0,7.12633 0,7.12633 2.75,4.60012 3.78613,-3.47801 8.82096,-6.84797 10.2311,-6.84797 0.64479,0 -0.32467,1.23465 -2.15437,2.74366 -1.8297,1.50902 -3.77673,3.22066 -4.32673,3.80366 -4.82466,5.11411 -6.38788,7.42028 -7.00198,10.32983 -0.71278,3.37715 -0.71278,3.37715 5.80108,-1.27104 7.28131,-5.19584 21.76624,-12.31458 26.8649,-13.20299 3.336,-0.58127 3.336,-0.58127 -1.164,2.37319 -2.475,1.62496 -9.45,5.7428 -15.5,9.15075 -11.01664,6.20566 -18.36187,11.5444 -17.3186,12.58767 0.30591,0.30591 3.25916,-1.05396 6.5628,-3.02192 3.30363,-1.96796 7.75017,-3.79294 9.8812,-4.05552 3.8746,-0.4774 3.8746,-0.4774 -0.35595,1.49339 -2.32681,1.08394 -5.92681,3.15797 -8,4.60897 -3.02518,2.11728 -3.27583,2.50563 -1.26945,1.96682 2.42377,-0.65089 2.40852,-0.59371 -0.5,1.87512 -3.64023,3.08993 -2.83764,3.34019 1.8473,0.576 4.54276,-2.68029 9.46399,-4.07195 10.19823,-2.88392 0.31488,0.50948 -0.30883,0.92633 -1.38602,0.92633 -1.07719,0 -4.27152,1.55652 -7.0985,3.45894 -5.13996,3.45894 -5.13996,3.45894 -64.35049,3.39052 -32.56578,-0.0376 -61.11527,-0.44437 -63.44331,-0.90386 z m 90.16833,-8.56232 c -1.90675,-5.70805 -3.13192,-7.33808 -3.93753,-5.23868 -0.55062,1.43488 4.30913,11.38159 5.14997,10.54075 0.23034,-0.23033 -0.31526,-2.61626 -1.21244,-5.30207 z m -21.23167,-9.09076 c 4.94761,-2.69282 5.73859,-4.46626 3.37925,-7.57648 -1.24602,-1.64259 -1.55545,-1.44446 -3.90444,2.5 -1.40315,2.35618 -4.81549,6.53396 -7.58298,9.28396 -2.76749,2.75 -5.04617,5.4263 -5.06375,5.94735 -0.0176,0.52104 1.85979,-0.96331 4.17192,-3.29855 2.31213,-2.33524 6.36213,-5.42057 9,-6.85628 z m 7.79613,2.14846 c 0,-0.79254 -0.40185,-1.44098 -0.89301,-1.44098 -1.10376,0 -2.17898,2.59467 -1.39861,3.37505 0.87532,0.87532 2.29162,-0.32 2.29162,-1.93407 z m -20.52385,-4.53335 c 2.06823,-3.3508 7.76253,-10.2133 12.654,-15.25 8.89358,-9.15763 8.89358,-9.15763 6.98475,-4.15763 -1.04986,2.75 -2.48733,6.25922 -3.19438,7.79826 -1.19476,2.60068 -1.06039,3.02341 1.90299,5.98679 2.92889,2.92888 3.37126,3.07473 5.43251,1.79108 2.06745,-1.2875 2.13378,-1.26411 0.84325,0.2973 -1.1716,1.41752 -1.18486,2.09813 -0.081,4.16066 1.19376,2.23055 4.98839,3.53878 4.97713,1.71591 -0.003,-0.4125 -1.11687,-3.45 -2.47626,-6.75 -1.3594,-3.3 -2.48232,-7.81443 -2.49537,-10.03207 -0.0131,-2.21764 -0.66184,-6.49204 -1.44175,-9.49866 -0.77991,-3.00662 -1.31741,-5.56718 -1.19445,-5.69014 0.12296,-0.12296 1.72811,2.25892 3.56699,5.29307 3.50998,5.79143 6.68234,14.30469 7.69852,20.65952 0.33141,2.07255 1.03081,3.76828 1.55421,3.76828 0.5383,0 0.67361,-1.41165 0.31152,-3.25 -0.47613,-2.41736 -0.37231,-2.86571 0.40523,-1.75 0.57495,0.825 1.05226,2.2875 1.06068,3.25 0.0301,3.4364 1.54543,1.64307 3.3861,-4.00724 1.02894,-3.15852 3.79809,-10.27389 6.15367,-15.81194 4.18942,-9.84945 13.13249,-36.8724 25.45977,-76.93082 20.33289,-66.07325 30.32286,-91.05825 46.0277,-115.11565 4.72842,-7.24321 4.98807,-7.98999 4.98807,-14.34599 0,-3.68776 -0.32217,-7.0272 -0.71594,-7.42097 -0.39376,-0.39376 -1.30722,2.78469 -2.02989,7.06323 -0.72268,4.27854 -1.70769,8.1729 -2.18892,8.65413 -0.49994,0.49994 -1.15534,-2.49169 -1.52912,-6.9799 -0.98482,-11.8252 -1.13497,-11.7955 -1.99748,0.39515 -0.43778,6.1875 -1.18806,11.25 -1.6673,11.25 -0.47924,0 -0.87135,-4.30156 -0.87135,-9.55902 0,-6.11803 -0.35997,-9.33654 -1,-8.94098 -0.55,0.33992 -1.0034,3.85398 -1.00755,7.80902 -0.009,8.59946 -1.68895,19.799 -3.17862,21.19098 -0.75752,0.70784 -0.89665,-1.39923 -0.47623,-7.21213 0.35319,-4.88324 0.20247,-8.45409 -0.37182,-8.80902 -0.57413,-0.35484 -0.97132,1.55604 -0.97943,4.71213 -0.016,6.21191 -0.82318,9.80902 -2.20117,9.80902 -0.61268,0 -0.71423,-2.30329 -0.27021,-6.12895 0.98281,-8.46796 -0.84532,-6.82585 -2.46007,2.20974 -0.87762,4.91086 -1.56426,6.7371 -2.1788,5.79493 -0.49353,-0.75665 -0.64098,-3.17572 -0.32767,-5.37572 0.41939,-2.94484 0.29433,-3.60431 -0.47407,-2.5 -0.57405,0.825 -1.05751,4.425 -1.07436,8 -0.0392,8.31299 -1.39536,10.8409 -2.90296,5.41102 -0.59724,-2.15106 -1.13325,-5.26102 -1.19114,-6.91102 -0.10333,-2.94494 -0.11995,-2.95412 -0.9059,-0.5 -0.44035,1.375 -0.84549,4.61094 -0.90032,7.19098 -0.13918,6.5501 -2.09968,7.30549 -2.09968,0.80902 0,-5.8781 -1.95855,-6.05878 -2.07028,-0.19098 -0.0387,2.03004 -0.45703,4.59098 -0.92972,5.69098 -0.70826,1.6482 -0.88002,1.38435 -0.97649,-1.5 -0.11706,-3.5 -0.11706,-3.5 -1.94104,1.16413 -1.9475,4.97997 -5.99617,11.2555 -6.7653,10.48637 -0.25555,-0.25555 0.27672,-1.89828 1.18283,-3.6505 2.6856,-5.19338 1.06949,-4.4352 -2.38235,1.11765 -3.02025,4.85856 -5.55407,6.43485 -3.16349,1.968 0.74151,-1.38552 0.76871,-2.08565 0.081,-2.08565 -0.56935,0 -1.05136,0.3375 -1.07114,0.75 -0.0198,0.4125 -1.16502,2.1 -2.54498,3.75 -2.50901,3 -2.50901,3 -0.0317,-3.68935 1.36254,-3.67915 2.97361,-7.61665 3.58016,-8.75 1.75459,-3.27848 0.20986,-2.38647 -2.05965,1.18935 -1.73833,2.7389 -1.95173,2.85685 -1.35699,0.75 0.38815,-1.375 1.565,-4.20293 2.61523,-6.2843 1.05023,-2.08136 1.65047,-4.20343 1.33387,-4.7157 -0.94734,-1.53284 3.20064,-8.61755 9.23678,-15.77632 3.1181,-3.69803 4.89204,-6.09706 3.94208,-5.33118 -0.94995,0.76588 -1.96765,1.15204 -2.26154,0.85815 -0.29389,-0.29389 1.96698,-2.69385 5.02416,-5.33323 3.05719,-2.63938 5.55852,-5.1896 5.55852,-5.66716 0,-0.47756 -0.49489,-0.56243 -1.09977,-0.1886 -0.79746,0.49286 -0.80073,0.12094 -0.0119,-1.35301 1.64254,-3.06911 9.9515,-9.85696 15.8593,-12.95595 3.27887,-1.71997 5.24851,-3.40925 5.25,-4.5027 0.003,-2.44743 -1.72399,-2.18752 -2.53956,0.38213 -0.5316,1.67489 -0.86444,1.83573 -1.55208,0.75 -0.63201,-0.99789 -0.87962,-1.03462 -0.89068,-0.13213 -0.0336,2.73972 -1.90915,1.04066 -2.20781,-2 -0.31921,-3.25 -0.31921,-3.25 -2.6017,1.03532 -1.25537,2.35692 -2.66808,4.04701 -3.13936,3.75574 -0.47128,-0.29126 -1.1149,0.14284 -1.43027,0.96468 -0.31537,0.82184 -1.01456,1.49426 -1.55376,1.49426 -0.54306,0 -0.30791,-1.60939 0.5272,-3.60809 2.73201,-6.53863 0.47325,-4.85129 -2.61072,1.95027 -1.66034,3.6618 -3.46432,6.65782 -4.00884,6.65782 -1.37457,0 -1.3596,-0.0807 2.08207,-11.23371 1.68967,-5.47546 2.87501,-10.15249 2.6341,-10.3934 -0.39446,-0.39447 -1.2633,1.8369 -6.37283,16.36677 -0.82,2.33181 -1.90546,4.49587 -2.41215,4.80901 -1.2494,0.77218 -1.16301,-1.22841 0.15978,-3.70006 0.59456,-1.11095 0.83863,-2.2623 0.54236,-2.55856 -0.29626,-0.29626 -1.75127,2.10478 -3.23335,5.33565 -3.53649,7.70936 -4.2258,4.76779 -0.97889,-4.17734 1.37253,-3.78128 2.35282,-7.01774 2.17842,-7.19214 -0.42318,-0.42317 -4.24981,8.5332 -5.10684,11.95276 -0.37342,1.48994 -1.29932,3.22385 -2.05756,3.85313 -1.11096,0.92202 -1.07203,0.10487 0.20054,-4.20898 0.86854,-2.94422 2.20807,-6.87059 2.97673,-8.72525 1.65995,-4.00521 1.70938,-4.43863 0.415,-3.63865 -0.54041,0.33399 -2.11452,4.29805 -3.49801,8.80901 -2.44197,7.96217 -6.46605,15.77207 -6.54463,12.70176 -0.0311,-1.21507 -0.29074,-1.16758 -1.36683,0.25 -2.52809,3.33034 -2.3773,1.71971 0.5012,-5.35361 4.85671,-11.93431 3.32936,-11.49537 -4.13044,1.18703 -5.02666,8.54584 -8.30493,11.46723 -4.54764,4.05259 1.48686,-2.93418 2.49586,-5.54241 2.24221,-5.79605 -0.25364,-0.25365 -2.30811,1.9286 -4.56548,4.84943 -7.99497,10.34477 -7.3211,9.6736 -6.68017,6.6534 0.31014,-1.46147 1.55877,-4.83647 2.77475,-7.5 1.21597,-2.66354 2.41605,-5.29279 2.66685,-5.84279 0.2508,-0.55 -0.29218,-0.3824 -1.20662,0.37244 -0.91444,0.75485 -1.66262,1.00881 -1.66262,0.56436 0,-0.92172 8.06047,-10.76293 9.23083,-11.27013 0.42305,-0.18334 0.76917,-1.17961 0.76917,-2.21395 0,-1.03434 1.50361,-2.90934 3.34136,-4.16667 1.83775,-1.25733 3.16788,-2.79564 2.95586,-3.41848 -0.46203,-1.35724 7.25129,-7.13704 14.20278,-10.64253 4.36444,-2.20089 7.10673,-4.8326 9.87316,-9.47504 1.59109,-2.67007 -1.13889,-1.00396 -7.16906,4.37526 -6.68474,5.96314 -9.08422,6.47255 -5.23995,1.11244 2.16902,-3.02429 2.04899,-2.97715 -1.82104,0.71525 -5.59875,5.34177 -5.26498,3.01114 0.48459,-3.38376 6.70688,-7.45966 4.50963,-7.48981 -3.07752,-0.0422 -6.51402,6.3942 -9.55018,8.71723 -9.55018,7.30708 0,-0.42094 2.1375,-2.96362 4.75,-5.6504 4.75,-4.88505 4.75,-4.88505 -2.05296,0.21566 -8.28328,6.21061 -10.49338,6.57644 -5.1394,0.8507 12.12092,-12.96255 12.51391,-14.55824 1.40624,-5.70981 -4.10513,3.27016 -8.13888,5.94092 -8.96388,5.935 -0.825,-0.006 1.5375,-2.97564 5.25,-6.59939 3.7125,-3.62376 6.75,-6.78866 6.75,-7.03311 0,-0.55138 -5.94228,3.83759 -12.25549,9.05191 -2.61553,2.16026 -4.98958,3.69366 -5.27567,3.40757 -0.66779,-0.66779 7.82652,-9.48348 13.03116,-13.5242 2.2,-1.70801 3.69693,-3.40986 3.32651,-3.78188 -0.78153,-0.78491 -10.16079,5.95466 -17.14192,12.31749 -2.64847,2.41391 -5.06471,4.13963 -5.36942,3.83492 -0.58345,-0.58344 8.49663,-9.93979 15.03985,-15.49744 2.12025,-1.8009 3.62277,-3.5066 3.33892,-3.79045 -0.28384,-0.28385 -2.32997,1.12265 -4.54694,3.12555 -3.84023,3.46941 -15.06944,9.92473 -15.87065,9.12352 -0.20859,-0.20859 1.30634,-1.76866 3.36651,-3.46682 4.80964,-3.96451 3.91369,-4.86259 -1.74079,-1.74491 -2.42114,1.33492 -6.27739,2.97658 -8.56944,3.64813 -3.10321,0.9092 -4.03758,1.63376 -3.65908,2.83745 0.27957,0.88906 -0.84799,0.0444 -2.50568,-1.87714 -4.02451,-4.66493 -4.88607,-3.35721 -1.80021,2.73244 3.82155,7.54146 6.6375,16.72603 6.58557,21.47962 -0.0468,4.28155 -0.0468,4.28155 -1.85803,-0.34904 -0.99619,-2.54682 -3.01066,-6.20308 -4.47659,-8.12503 -1.46594,-1.92194 -3.59614,-6.25068 -4.73378,-9.61941 -1.13764,-3.36873 -2.47713,-6.12497 -2.97663,-6.12497 -1.6148,0 -0.96898,5.44877 1.6681,14.07377 2.78524,9.10959 4.37849,24.2181 2.66553,25.27677 -0.58894,0.36399 -1.30827,-0.89117 -1.69639,-2.96001 -0.84291,-4.4931 -3.60507,-10.39053 -4.86658,-10.39053 -0.56291,0 -0.67345,1.93753 -0.27098,4.75 1.96177,13.70907 2.43678,20.75817 1.67396,24.84135 -0.46249,2.47557 -1.05736,4.71751 -1.32194,4.98209 -0.26458,0.26458 -1.267,-2.34371 -2.2276,-5.79619 -2.15621,-7.74968 -4.38612,-13.25676 -5.08493,-12.55795 -0.28951,0.2895 -0.024,3.6211 0.58996,7.40354 1.39372,8.58603 2.69792,29.37716 1.84279,29.37716 -1.32608,0 -3.21453,-3.22821 -5.36875,-9.17758 -2.23151,-6.16285 -2.23151,-6.16285 -3.43459,2.25737 -0.87124,6.09771 -2.42687,11.058 -5.63993,17.98355 -2.44027,5.25983 -4.43685,10.57389 -4.43685,11.80901 0,3.33899 -1.82259,1.59025 -2.58649,-2.48168 -0.57624,-3.07163 -0.0769,-8.198 2.15651,-22.14067 0.94708,-5.91233 -1.43883,-3.40614 -3.57002,3.75 -1.14658,3.85 -2.46749,7 -2.93536,7 -4.32284,0 -1.15478,-21.50194 5.95816,-40.43861 2.23345,-5.9461 3.8661,-11.00582 3.62811,-11.24382 -0.238,-0.238 -1.46948,1.05569 -2.73662,2.87485 -3.78372,5.43207 -9.16972,11.88548 -9.57846,11.47674 -0.2099,-0.2099 1.42355,-4.15882 3.62988,-8.7754 2.20633,-4.61657 4.30149,-9.87426 4.6559,-11.68375 0.64439,-3.28999 0.64439,-3.28999 -6.01522,2.91376 -3.66279,3.41206 -8.51664,8.94255 -10.78634,12.28999 -2.2697,3.34743 -3.77446,5.18624 -3.34391,4.08624 0.43055,-1.1 2.02787,-5.64458 3.54961,-10.09907 3.30467,-9.67358 5.1269,-13.3802 9.60364,-19.53491 1.85384,-2.54869 3.37061,-4.86906 3.37061,-5.15638 0,-1.52038 -4.49842,1.02407 -7.99862,4.52428 -2.20076,2.20075 -3.99596,3.61093 -3.98933,3.13373 0.0247,-1.77614 5.09827,-9.6778 9.58982,-14.93521 2.55259,-2.98784 4.21658,-5.43244 3.69774,-5.43244 -1.66474,0 -7.96901,5.33211 -13.3421,11.28465 -5.74302,6.36238 -7.94164,7.08901 -3.12148,1.03163 1.67024,-2.09896 4.62746,-6.96768 6.57159,-10.81938 1.94413,-3.85171 5.64079,-9.13921 8.21479,-11.75 2.57399,-2.6108 4.09347,-4.7469 3.37662,-4.7469 -1.63982,0 -9.34621,7.9066 -18.76255,19.25 -7.72805,9.30961 -11.05297,11.52808 -6.74434,4.5 1.43303,-2.3375 4.34151,-7.64392 6.46329,-11.79205 2.12178,-4.14813 5.71027,-9.88563 7.97443,-12.75 2.26416,-2.86437 3.67728,-5.20795 3.14028,-5.20795 -0.537,0 -5.1976,4.1625 -10.3569,9.25 -5.15929,5.0875 -8.78317,8.125 -8.05305,6.75 0.73012,-1.375 1.33026,-3.02909 1.33365,-3.67574 0.006,-1.22275 14.40692,-20.772 18.83103,-25.56383 2.64643,-2.8664 2.75629,-4.44003 0.16955,-2.42867 -0.82633,0.64253 -3.5236,3.64324 -5.99393,6.66824 -2.47032,3.025 -4.97352,5.95 -5.56267,6.5 -0.58914,0.55 -3.20415,3.025 -5.81113,5.5 -6.30758,5.98825 -5.26358,3.41627 4.87097,-12 4.51957,-6.875 8.57233,-13.62432 9.00613,-14.9985 0.72022,-2.28149 0.40689,-2.16119 -3.60753,1.38498 -4.10935,3.63003 -6.54614,6.09235 -11.08683,11.203 -2.90326,3.26768 -8.62167,35.9252 -12.50415,71.41052 -2.19376,20.05067 -2.48348,83.72922 -0.48681,107 4.36846,50.91365 10.96525,83.11904 22.94153,112 4.27965,10.32045 4.90413,11.09856 5.93465,7.39464 0.67954,-2.44244 0.88399,-1.87922 1.30875,3.60536 0.5034,6.5 0.5034,6.5 3.21882,-4.63578 3.89392,-15.96874 7.73034,-25.7309 13.69682,-34.85302 5.64224,-8.62637 6.84319,-10.12846 5.60559,-7.0112 -2.88387,7.26393 -3.72255,11.09434 -5.04938,23.06161 -1.54298,13.9168 -3.46106,20.52434 -9.33682,32.16417 -2.69365,5.33608 -2.96853,6.55301 -1.97347,8.73691 0.63584,1.39552 1.24488,2.53731 1.35342,2.53731 0.10854,0 1.88954,-2.74157 3.95777,-6.09237 z m 35.20697,1.90487 c -0.31923,-0.79773 -0.55619,-0.56078 -0.60417,0.60417 -0.0434,1.05416 0.19293,1.64479 0.52522,1.3125 0.33229,-0.3323 0.36782,-1.1948 0.079,-1.91667 z m 38.44542,-206.0625 c 1.08712,-2.04022 1.04378,-2.12204 -0.46482,-0.87756 -0.91504,0.75485 -1.66372,1.76735 -1.66372,2.25 0,1.52749 0.88863,0.95452 2.12854,-1.37244 z m 52.34289,-31.45364 c 0.39299,-9.08152 0.36336,-9.28015 -0.40616,-2.72209 -0.45655,3.89085 -1.12695,9.06585 -1.48976,11.5 -0.49669,3.33229 -0.39634,4.00482 0.40616,2.72209 0.5862,-0.937 1.25659,-6.112 1.48976,-11.5 z m 65.4953,10.95364 c -0.0417,-0.9404 -3.59653,-5.25 -4.33051,-5.25 -0.29876,0 0.22337,1.34715 1.16029,2.99368 1.58901,2.79249 3.24633,3.97204 3.17022,2.25632 z m 3.96299,-4.05902 c -0.0628,-2.40282 -0.16232,-2.47681 -0.92972,-0.69098 -1.19384,2.77822 -1.19384,4.73784 0,4 0.55,-0.33992 0.96837,-1.82898 0.92972,-3.30902 z m -3.75833,-5.19098 c 0.20981,-2.2 0.0321,-4 -0.39496,-4 -0.42704,0 -0.77643,0.675 -0.77643,1.5 0,1.9109 -0.74515,1.89771 -2.69048,-0.0476 -2.80744,-2.80745 -2.56028,-0.65979 0.3428,2.9786 1.56623,1.96293 2.91292,3.56897 2.99265,3.56899 0.0797,2e-5 0.31662,-1.79997 0.52642,-3.99997 z m -59.27795,-9.5 c -0.0934,-7 -0.0934,-7 -1.92134,1.5 -2.37075,11.02402 -2.36717,12.11643 0.0279,8.5 1.53876,-2.32344 1.96576,-4.57864 1.89344,-10 z m 51.30656,3.3 c -0.64167,-0.64167 -1.49863,-0.8347 -1.90437,-0.42896 -0.40574,0.40574 -0.0888,1.13877 0.70437,1.62896 1.86759,1.15423 2.71091,0.31091 1.2,-1.2 z m 4.40417,-0.52917 c -1.01652,-1.01651 -1.85525,0.51389 -1.02122,1.86338 0.63004,1.01942 0.86558,1.02021 1.2043,0.004 0.2316,-0.69478 0.14921,-1.53512 -0.18308,-1.86741 z m -52.0821,-3.07392 c -0.28714,-0.74827 -0.56692,-2.33618 -0.62175,-3.5287 -0.0917,-1.9938 -0.16408,-1.96711 -0.90032,0.33179 -0.44035,1.375 -0.83118,3.85 -0.86852,5.5 -0.0649,2.86968 -0.003,2.91437 1.42239,1.02869 0.81964,-1.08422 1.25533,-2.58352 0.9682,-3.33178 z m 44.47793,1.80309 c 0,-0.55 -0.47656,-1 -1.05902,-1 -0.58246,0 -0.7809,0.45 -0.44098,1 0.33992,0.55 0.81648,1 1.05902,1 0.24254,0 0.44098,-0.45 0.44098,-1 z m -60.58179,-10.60699 c 1.63429,-0.62713 2.23489,-3.39301 0.73678,-3.39301 -0.46476,0 -1.6595,0.9 -2.65499,2 -1.80847,1.99834 -1.06542,2.53794 1.91821,1.39301 z m 25.23671,-2.93614 c 0.93028,-2.42426 -0.36778,-2.86191 -1.60908,-0.54252 -0.77398,1.44619 -0.7892,2.08565 -0.0496,2.08565 0.58661,0 1.33304,-0.69441 1.65872,-1.54313 z m -9.40492,-3.18221 c 0.97761,-0.28375 1.73532,-1.44952 1.71673,-2.64129 -0.0328,-2.10334 -0.061,-2.10013 -2,0.22741 -1.68429,2.02176 -1.96673,2.1026 -1.96673,0.56291 0,-1.48299 -0.53662,-1.28375 -3.0639,1.13753 -2.23668,2.14288 -2.86577,2.41909 -2.33006,1.02305 0.51254,-1.33566 0.38103,-1.69431 -0.4361,-1.1893 -0.64347,0.39769 -1.16994,1.60254 -1.16994,2.67747 0,1.88013 0.14251,1.89276 3.75,0.33227 2.0625,-0.89218 4.5375,-1.8507 5.5,-2.13005 z m -27.25,-1.77466 c 0,-0.825 -0.17685,-1.5 -0.39301,-1.5 -0.21616,0 -0.65203,0.675 -0.96862,1.5 -0.31658,0.825 -0.13972,1.5 0.39302,1.5 0.53273,0 0.96861,-0.675 0.96861,-1.5 z m 73.06067,-6.85847 c -1.09428,-2.55284 -2.25098,-4.64153 -2.57044,-4.64153 -1.19188,0 0.79287,7.54775 2.29817,8.73967 2.387,1.89006 2.44767,0.97688 0.27227,-4.09814 z m -4.06067,1.55847 c 0,-0.98899 -2.14632,-3.2 -3.10638,-3.2 -0.38851,0 -0.47102,0.9 -0.18337,2 0.49432,1.89026 3.28975,2.90995 3.28975,1.2 z m -7,-1.07868 c 0,-1.57528 -5.73907,-3.34132 -8.17628,-2.51602 -2.02487,0.68567 -1.68068,0.94222 2.67628,1.99479 2.75,0.66435 5.1125,1.25111 5.25,1.30391 0.1375,0.0528 0.25,-0.29941 0.25,-0.78268 z m 71.25657,-2.18508 c -2.71394,-4.28638 -13.34781,-16.41174 -15.75657,-17.96657 -2.27019,-1.46539 -2.33599,-1.57132 3.77485,6.07689 1.99797,2.5006 4.2832,5.80047 5.0783,7.33303 1.15515,2.22654 6.89999,7.34674 8.49505,7.57137 0.19151,0.027 -0.52472,-1.32965 -1.59163,-3.01472 z m -84.25657,-1.96099 c 0,-0.56361 -1.2375,-1.49359 -2.75,-2.06661 -1.5125,-0.57303 -3.65,-1.88175 -4.75,-2.90826 -3.30613,-3.08528 -22.97206,-13.86694 -23.3625,-12.80828 -0.55472,1.50409 0.39981,2.15539 14.3625,9.79993 7.15,3.9146 13.675,7.51637 14.5,8.00391 1.97764,1.16871 2,1.16848 2,-0.0207 z m 74.05682,-4.25303 c -1.28264,-1.22222 -1.97507,-1.54722 -1.53874,-0.72222 1.39371,2.6352 2.75059,4.06466 3.31887,3.49639 0.30357,-0.30357 -0.49749,-1.55195 -1.78013,-2.77417 z m -134.5157,-0.78875 c 1.07627,-1.74144 -0.14952,-2.11024 -1.52106,-0.45764 -0.78875,0.95039 -0.86461,1.52417 -0.20152,1.52417 0.58488,0 1.36005,-0.47994 1.72258,-1.06653 z m 55.95888,0.0665 c 0.33992,-0.55 0.14148,-1 -0.44098,-1 -0.58246,0 -1.05902,0.45 -1.05902,1 0,0.55 0.19844,1 0.44098,1 0.24254,0 0.7191,-0.45 1.05902,-1 z m -3.5,-3.89301 c 0,-0.49116 -0.675,-1.15204 -1.5,-1.46862 -1.52427,-0.58492 -2.04799,0.4803 -0.83333,1.69496 0.95569,0.9557 2.33333,0.82206 2.33333,-0.22634 z m 66.44649,-3.60699 c -2.02808,-2.475 -3.8214,-4.5 -3.98516,-4.5 -0.16377,0 -1.12206,-0.30339 -2.12954,-0.67421 -1.00748,-0.37081 0.0807,1.20369 2.41821,3.49889 2.3375,2.29521 4.25,4.6236 4.25,5.17421 0,0.55061 0.70513,1.00111 1.56695,1.00111 1.10846,0 0.48801,-1.31671 -2.12046,-4.5 z m -2.44649,2.9974 c 0,-0.67456 -7.8201,-7.75391 -9.87126,-8.93622 -0.89581,-0.51635 0.32566,1.39615 2.71438,4.25 2.38871,2.85385 4.97621,5.18882 5.75,5.18882 0.77378,0 1.40688,-0.22617 1.40688,-0.5026 z M 123.41725,181.30125 c -0.11182,-2.30163 -3.30899,7.02204 -4.26742,12.44479 -0.34023,1.925 0.50322,0.37484 1.87434,-3.44479 1.37111,-3.81963 2.448,-7.86963 2.39308,-9 z m 302.15667,12.16701 c -1.28264,-1.22222 -1.97507,-1.54722 -1.53874,-0.72222 1.39371,2.6352 2.75059,4.06466 3.31887,3.49639 0.30357,-0.30357 -0.49749,-1.55195 -1.78013,-2.77417 z m -80.03676,-2.19805 c -0.69572,-0.8383 -1.88485,-1.52417 -2.6425,-1.52417 -1.71917,0 -1.83518,-1.94805 -0.12756,-2.14191 0.6875,-0.078 -0.55,-0.46824 -2.75,-0.86711 -3.47596,-0.63019 -3.70522,-0.8234 -1.75,-1.47472 1.2375,-0.41224 2.25,-1.1736 2.25,-1.69191 0,-0.51831 -0.47557,-0.64846 -1.05683,-0.28922 -0.58126,0.35923 -2.26876,0.32867 -3.75,-0.0679 -2.69317,-0.72107 -2.69317,-0.72107 1.15958,-2.47162 2.11901,-0.9628 3.37959,-2.04298 2.8013,-2.40039 -1.18428,-0.73192 -10.18571,1.29501 -10.09649,2.27351 0.0871,0.95507 12.83718,11.54075 14.76165,12.25576 2.27311,0.84454 2.72742,0.2391 1.20085,-1.6003 z m 37.97994,-0.66384 c 1.97958,-1.62049 2.08367,-1.88935 0.5,-1.29158 -1.1,0.41521 -3.6875,0.95437 -5.75,1.19813 -4.60734,0.54452 -4.93396,1.867 -0.5,2.02451 1.93523,0.0687 4.26136,-0.71245 5.75,-1.93106 z m -138,-6.67685 c 0.56145,-0.52196 -3.95619,0.47874 -6.4071,1.41924 -0.87609,0.33619 -1.5929,0.16538 -1.5929,-0.37959 0,-0.90642 7.29846,-4.18197 12.75,-5.72221 3.12734,-0.88357 2.81704,-2.48464 -0.5,-2.57987 -2.75,-0.0789 -2.75,-0.0789 -0.13857,-1.03714 2.31114,-0.84801 2.68485,-1.66072 3.25,-7.06774 0.35121,-3.36026 0.63857,-7.1951 0.63857,-8.52188 0,-4.05509 -1.69493,-1.63517 -2.40469,3.43326 -0.36757,2.62485 -1.29434,5.89745 -2.05949,7.27245 -2.53239,4.55077 -2.94819,-0.34967 -1.1237,-13.24329 1.0846,-7.6648 1.35609,-12.3885 0.74701,-12.99758 -0.99947,-0.99947 -1.5197,0.84709 -2.63582,9.35584 -0.33295,2.53824 -1.24759,5.46324 -2.03253,6.5 -1.2546,1.65709 -1.4434,-0.29151 -1.56134,-16.11497 -0.13888,-18.6333 -1.57788,-19.97083 -1.85087,-1.72036 -0.0793,5.2983 -0.44715,10.77787 -0.81754,12.17682 -0.67345,2.54354 -0.67345,2.54354 -1.34892,-0.45646 -0.37152,-1.65 -0.72872,-7.3875 -0.79379,-12.75 -0.066,-5.4422 -0.54012,-9.75 -1.07301,-9.75 -1.43021,0 -2.54312,6.67798 -2.31687,13.90227 0.25697,8.20511 -1.1094,11.14082 -2.58542,5.55488 -0.57509,-2.17643 -1.34937,-6.31108 -1.72062,-9.18811 -0.76784,-5.95036 -2.11652,-6.03412 -3.05111,-0.18949 -0.3487,2.18062 -0.99379,4.18714 -1.43354,4.45892 -1.69382,1.04684 -2.14192,-1.34967 -2.86969,-15.34749 -0.15068,-2.89813 -2.06806,0.16415 -2.06806,3.30294 0,1.85673 -0.45071,4.56133 -1.00157,6.01022 -0.82375,2.16661 -0.52738,3.46542 1.66919,7.3151 1.46893,2.57442 3.33938,5.46826 4.15657,6.43076 0.81718,0.9625 1.02724,1.75 0.4668,1.75 -0.56044,0 -2.26639,-1.8 -3.79099,-4 -1.5246,-2.2 -3.13966,-4 -3.58903,-4 -1.34409,0 6.59834,11.22976 10.60898,15 3.3406,3.14035 10.0137,14.79968 9.0322,15.78118 -0.21557,0.21558 -2.7184,-1.447 -5.56185,-3.69461 -6.68769,-5.28632 -9.23466,-5.45115 -5.20056,-0.33657 4.04668,5.13054 7.21026,11.26263 7.21026,13.97595 0,2.22506 0.071,2.21275 5.25,-0.91103 2.8875,-1.74163 5.475,-3.37577 5.75,-3.63144 z m 143.25,2.66076 c 1.5125,-0.59778 2.75,-1.45087 2.75,-1.89576 0,-1.05182 -4.87997,0.36146 -8.59032,2.48783 -2.90968,1.66751 -2.90968,1.66751 0.0903,1.08116 1.65,-0.32249 4.2375,-1.07544 5.75,-1.67323 z m -112.12244,-1.59424 c 1.24387,-1.58606 1.2085,-1.62143 -0.37756,-0.37756 -1.66575,1.30637 -2.19548,2.12756 -1.37244,2.12756 0.20765,0 0.99515,-0.7875 1.75,-1.75 z m -16.15898,-3.5 c 0.0426,-1.01671 -0.73896,-0.94326 -3.03432,0.28518 -1.06384,0.56935 -1.93426,1.71536 -1.93426,2.54669 0,1.27165 0.39172,1.2264 2.46858,-0.28519 1.35771,-0.98817 2.48271,-2.13418 2.5,-2.54668 z m 138.15898,-1.41445 c 1.25895,-1.52682 0.93783,-1.61335 -3.8834,-1.04643 -8.08274,0.95044 -10.0507,2.643 -3.1166,2.68047 4.06053,0.0219 6.00972,-0.43307 7,-1.63404 z m -67.60096,-2.94494 c 3.31483,-2.17196 2.19579,-3.52973 -1.7987,-2.18243 -3.99794,1.34846 -4.07846,1.41558 -3.26902,2.72529 0.91155,1.47492 2.19863,1.33704 5.06772,-0.54286 z m 71.9734,-0.39061 c 0.35052,-0.56716 -0.48961,-1 -1.94098,-1 -1.40746,0 -2.55902,0.45 -2.55902,1 0,0.55 0.87344,1 1.94098,1 1.06754,0 2.2191,-0.45 2.55902,-1 z m -106.72917,-2.8125 c 0.59996,-1.79986 -1.467,-1.42165 -2.16452,0.39606 -0.37373,0.97391 -0.15024,1.43108 0.58051,1.1875 0.6535,-0.21783 1.36631,-0.93044 1.58401,-1.58356 z m -141.40987,-9.1875 c 0.90233,-4.675 1.6037,-10.3 1.5586,-12.5 -0.082,-4 -0.082,-4 -1.4271,-1 -0.73981,1.65 -1.62558,5.925 -1.96838,9.5 -0.3428,3.575 -0.87227,8.3 -1.17659,10.5 -1.01594,7.3442 1.30953,2.32823 3.01347,-6.5 z m 109.44885,4.54889 c 0.38714,-5.99148 -0.18163,-7.52592 -2.55918,-6.90418 -1.20652,0.31551 -2.29442,2.06996 -3.06117,4.93673 -1.58779,5.93658 -1.54419,6.21227 1.06054,6.70559 3.77467,0.7149 4.23862,0.23281 4.55981,-4.73814 z m 24.19019,4.45111 c 0,-0.55 -0.45,-1 -1,-1 -0.55,0 -1,0.45 -1,1 0,0.55 0.45,1 1,1 0.55,0 1,-0.45 1,-1 z m -17,-0.39301 c 0,-0.94863 -2.99338,-1.42672 -3.52699,-0.56332 -0.32507,0.52598 0.33551,0.95633 1.46797,0.95633 1.13246,0 2.05902,-0.17686 2.05902,-0.39301 z m 52.97104,-0.56793 c 0.80907,-0.51167 1.23942,-1.16193 0.95633,-1.44502 -0.77481,-0.77481 -4.92737,0.50836 -4.92737,1.52259 0,1.147 2.09956,1.10599 3.97104,-0.0776 z m 14.75813,0.35677 c -0.33229,-0.33229 -1.19479,-0.36782 -1.91667,-0.0789 -0.79773,0.31922 -0.56078,0.55618 0.60417,0.60416 1.05416,0.0434 1.64479,-0.19293 1.3125,-0.52522 z m -60.72917,-4.95485 c 0,-2.11803 -0.40488,-3.30878 -1,-2.94098 -0.55,0.33992 -1,1.94148 -1,3.55902 0,1.61754 0.45,2.94098 1,2.94098 0.55,0 1,-1.60156 1,-3.55902 z m -7,0.47569 c 0,-2.43705 -2.33677,-2.09257 -2.82332,0.4162 -0.19138,0.98676 0.31876,1.66713 1.25,1.66713 0.92763,0 1.57332,-0.855 1.57332,-2.08333 z m 17,1.08333 c 0,-0.55 -0.42344,-1 -0.94098,-1 -0.51754,0 -1.2191,0.45 -1.55902,1 -0.33992,0.55 0.0835,1 0.94098,1 0.85746,0 1.55902,-0.45 1.55902,-1 z m 33.18356,-4.21418 c 2.92404,-1.7678 5.50394,-3.3428 5.73311,-3.5 0.22916,-0.1572 0.16215,-0.54034 -0.14893,-0.85141 -0.74613,-0.74614 -11.76774,5.49256 -11.76774,6.66105 0,1.33983 0.38494,1.19605 6.18356,-2.30964 z m 40.81644,-0.28582 c -0.70675,-0.85158 -1.51,-1.32333 -1.785,-1.04833 -0.275,0.275 0.0783,1.19675 0.785,2.04833 0.70675,0.85158 1.51,1.32333 1.785,1.04833 0.275,-0.275 -0.0782,-1.19675 -0.785,-2.04833 z m -75,-0.5 c 0,-1.1 -0.45,-2 -1,-2 -0.55,0 -1,0.9 -1,2 0,1.1 0.45,2 1,2 0.55,0 1,-0.9 1,-2 z m -15.22917,-1.8125 c 0.59996,-1.79986 -1.467,-1.42165 -2.16452,0.39606 -0.37373,0.97391 -0.15024,1.43108 0.58051,1.1875 0.6535,-0.21783 1.36631,-0.93044 1.58401,-1.58356 z m 45.57481,-1.7764 c 2.09544,-1.42389 3.59351,-2.80528 3.32904,-3.06976 -0.72912,-0.72912 -8.67468,3.55659 -8.67468,4.67898 0,1.54847 1.25439,1.17086 5.34564,-1.60922 z m -54.354,-2.38477 c 1.12751,-0.71284 1.20981,-1.22488 0.33713,-2.09756 -1.36893,-1.36893 -3.32877,-0.40911 -3.32877,1.63025 0,1.6637 0.88149,1.80139 2.99164,0.46731 z m -8.99164,-5.14436 c 0,-1.1 -0.45,-1.72189 -1,-1.38197 -0.55,0.33992 -1,1.51803 -1,2.61803 0,1.1 0.45,1.72189 1,1.38197 0.55,-0.33992 1,-1.51803 1,-2.61803 z m 18,2.11803 c 0,-0.55 -0.19844,-1 -0.44098,-1 -0.24254,0 -0.7191,0.45 -1.05902,1 -0.33992,0.55 -0.14148,1 0.44098,1 0.58246,0 1.05902,-0.45 1.05902,-1 z m -92.6312,-9.38955 c 4.88854,-7.22644 2.45998,-6.96988 -3.33971,0.35283 -1.59244,2.01061 -3.22308,4.9789 -3.62365,6.59619 -0.7283,2.94053 -0.7283,2.94053 1.80194,-0.0595 1.39162,-1.65 3.71426,-4.7503 5.16142,-6.88955 z m 167.6312,7.98335 c 0,-0.77986 -10.19985,-7.72729 -10.66374,-7.26339 -0.55663,0.55663 0.9307,1.91328 5.66374,5.16611 3.33153,2.28962 5,2.98947 5,2.09728 z m -180.14057,-9.5938 c 0,-2.27881 -0.076,-2.32305 -0.85943,-0.5 -0.47269,1.1 -0.85943,3.125 -0.85943,4.5 0,2.27881 0.076,2.32305 0.85943,0.5 0.47269,-1.1 0.85943,-3.125 0.85943,-4.5 z m 88.14057,3.44098 c 0,-0.85746 -0.45,-1.2809 -1,-0.94098 -0.55,0.33992 -1,1.04148 -1,1.55902 0,0.51754 0.45,0.94098 1,0.94098 0.55,0 1,-0.70156 1,-1.55902 z m 62,-2.39129 c 0,-0.52267 -0.5625,-1.31017 -1.25,-1.75 -0.6875,-0.43983 -1.26533,-1.24969 -1.28406,-1.79969 -0.044,-1.29183 -2.36863,-12.11321 -3.43708,-16 -0.82468,-3 -0.82468,-3 -0.92677,0.70915 -0.20244,7.35522 2.02142,18.66031 3.76183,19.12346 2.76141,0.73485 3.13608,0.70105 3.13608,-0.28292 z m -7.39094,-2.29969 c -0.34331,-1.2375 -0.90632,-4.95 -1.25113,-8.25 -0.95071,-9.09881 -2.03123,-9.73189 -2.84138,-1.66477 -0.39574,3.94062 -1.04168,7.16477 -1.43542,7.16477 -1.21213,0 -3.982,-10.11396 -5.07118,-18.51702 -1.6506,-12.7345 -2.03564,-14.48298 -3.18934,-14.48298 -0.7649,0 -0.90626,4.68495 -0.47522,15.75 0.61354,15.75 0.61354,15.75 -1.18627,9.75 -1.82805,-6.09418 -9.34263,-23.64983 -9.88919,-23.10326 -0.16438,0.16438 0.58754,3.17986 1.67094,6.70107 1.0834,3.5212 2.24564,8.42719 2.58276,10.90219 0.57759,4.24051 0.52083,4.38578 -0.98435,2.5192 -0.87851,-1.08944 -2.10547,-3.67694 -2.72657,-5.75 -1.38706,-4.62959 -2.80505,-4.88928 -2.83494,-0.5192 -0.0222,3.25 -0.0222,3.25 -1.77396,0.97395 -1.31572,-1.70955 -2.0367,-1.99106 -2.89674,-1.13102 -1.66302,1.66302 -4.50256,-4.42636 -8.64568,-18.54066 -1.89472,-6.454699 -3.96186,-12.252743 -4.59366,-12.884537 -0.70735,-0.707358 -0.58517,0.448525 0.318,3.008398 0.8067,2.286413 1.75845,6.332139 2.11501,8.990489 0.35656,2.65836 1.80397,8.10667 3.21647,12.10735 1.4125,4.00069 2.3566,7.48556 2.098,7.74415 -0.2586,0.2586 -2.59642,-2.64168 -5.19516,-6.44507 -5.0988,-7.46235 -8.66144,-11.2181 -7.18367,-7.57305 0.44596,1.1 1.54271,4.12884 2.43723,6.73075 1.58839,4.62022 1.87171,4.85218 12.12639,9.92814 5.775,2.85857 12.68617,7.14223 15.35815,9.51925 2.67199,2.37702 5.38469,4.32186 6.02822,4.32186 0.64354,0 2.73237,1.10293 4.64185,2.45096 1.95446,1.37979 4.94315,2.4724 6.83841,2.5 3.01819,0.044 3.30203,-0.18383 2.74243,-2.20096 z m 13.27983,-3.63889 c -0.61607,-1.76726 -1.29513,-3.0382 -1.50902,-2.82432 -0.21389,0.21389 0.11517,1.83484 0.73124,3.6021 0.61607,1.76726 1.29513,3.0382 1.50902,2.82431 0.21389,-0.21389 -0.11517,-1.83483 -0.73124,-3.60209 z m -73.88889,1.88889 c 0,-0.55 -0.19844,-1 -0.44098,-1 -0.24254,0 -0.7191,0.45 -1.05902,1 -0.33992,0.55 -0.14148,1 0.44098,1 0.58246,0 1.05902,-0.45 1.05902,-1 z m 87.92432,-1.75 c -1.33338,-1.5125 -2.53682,-2.9375 -2.67432,-3.16667 -0.1375,-0.22916 -0.52508,-0.14159 -0.86128,0.19462 -0.57775,0.57775 4.30545,5.72205 5.43162,5.72205 0.29056,0 -0.56265,-1.2375 -1.89602,-2.75 z m 5.07355,-2.25398 c -1.70896,-3.19322 -7.74243,-8.82345 -11.26372,-10.51092 -3.23415,-1.54987 -3.23415,-1.54987 0.26585,1.22253 1.925,1.52482 5.26851,4.6894 7.43002,7.03239 4.36155,4.72773 5.16133,5.23345 3.56785,2.256 z M 178.5171,135.24604 c 0,-0.825 -0.17685,-1.5 -0.39301,-1.5 -0.21616,0 -0.65203,0.675 -0.96862,1.5 -0.31658,0.825 -0.13972,1.5 0.39302,1.5 0.53273,0 0.96861,-0.675 0.96861,-1.5 z m 36,-0.44098 c 0,-1.17986 -1.95035,-2.442 -2.66667,-1.72569 -0.71631,0.71631 0.54583,2.66667 1.72569,2.66667 0.51754,0 0.94098,-0.42344 0.94098,-0.94098 z m -32,-3.11804 c 0,-0.51754 -0.45,-0.94098 -1,-0.94098 -0.55,0 -1,0.70156 -1,1.55902 0,0.85746 0.45,1.2809 1,0.94098 0.55,-0.33992 1,-1.04148 1,-1.55902 z m 31.24475,-5.44098 c -0.26285,-1.375 -0.87544,-2.5 -1.36133,-2.5 -1.02904,0 -1.19678,3.35331 -0.21675,4.33333 1.36907,1.36907 2.04103,0.58842 1.57808,-1.83333 z m -65.22688,-1.88692 c 3.44322,-2.36024 7.93819,-8.61308 6.19168,-8.61308 -1.02646,0 -3.18836,1.93121 -8.15572,7.28544 -3.94244,4.24949 -3.11473,4.80901 1.96404,1.32764 z m 186.53337,-4.00143 c -3.53758,-4.14078 -6.56064,-6.34033 -13.05677,-9.5 -4.64934,-2.26141 -8.9126,-4.11165 -9.47391,-4.11165 -1.69764,0 -1.14367,2.0207 0.72944,2.66078 7.33064,2.50501 16.90722,8.0578 20.52243,11.89953 5.87585,6.24403 6.82327,5.5412 1.27881,-0.94866 z m -139.03423,-3.5939 c -3.226,-3.36722 -10.72896,-6.62283 -12.59923,-5.46694 -0.79345,0.49039 1.41653,2.12179 6.17316,4.55702 9.01502,4.61538 10.12697,4.77283 6.42607,0.90992 z m 64.27583,1.02214 c -0.81414,-1.30365 -1.45756,-1.58238 -1.92116,-0.83226 -0.66757,1.08016 -4.85948,-4.59432 -4.86794,-6.5896 -0.006,-1.31393 -4.16164,-7.79346 -4.67169,-7.28341 -0.2419,0.2419 0.48274,1.95307 1.61033,3.8026 1.12758,1.84953 2.05183,4.15028 2.05388,5.11278 0.006,2.66679 -3.25795,2.10737 -5.50891,-0.94427 -1.09304,-1.48185 -2.98563,-3.84435 -4.20575,-5.25 -2.2184,-2.55573 -2.2184,-2.55573 -2.32895,0.94427 -0.0608,1.925 -0.32159,2.98527 -0.57954,2.35616 -0.25795,-0.62911 -1.27458,-0.93318 -2.25917,-0.6757 -1.16896,0.30568 -3.75493,-1.32754 -7.45206,-4.7065 -3.11403,-2.84606 -5.66188,-4.882753 -5.66188,-4.525996 0,0.356756 0.9,2.511436 2,4.788176 2.31562,4.79277 2.30944,4.76386 1.01799,4.76386 -0.54011,0 -3.32789,-2.475 -6.19506,-5.5 -2.86718,-3.025 -5.53734,-5.5 -5.93369,-5.5 -0.39635,0 0.44946,2.64744 1.87958,5.8832 2.60021,5.88319 2.60021,5.88319 11.16569,7.06676 4.71102,0.65096 13.51549,2.90781 19.56549,5.01522 13.24463,4.61353 13.95302,4.73309 12.29284,2.07471 z m -89.044,-3.73927 c 2.33685,-0.81831 4.47354,-1.85142 4.74819,-2.29581 0.57574,-0.93158 -7.38482,1.32959 -10.44303,2.96629 -2.50272,1.33942 -2.73753,2.52127 -0.304,1.53011 0.9625,-0.39202 3.66198,-1.38228 5.99884,-2.20059 z m 42.47485,-9.05062 c -2.35198,-2.3375 -4.47823,-4.25 -4.725,-4.25 -0.24678,0 -0.17869,1.35 0.15131,3 0.6485,3.2425 -0.34588,3.76831 -3.71574,1.96482 -1.06384,-0.56935 -1.93426,-0.62944 -1.93426,-0.13352 0,0.49591 -3.0375,0.72011 -6.75,0.49822 -5.04185,-0.30135 -7.72125,0.0488 -10.58803,1.38352 -3.83803,1.78696 -3.83803,1.78696 14,1.78696 17.83803,0 17.83803,0 13.56172,-4.25 z m -42.35696,-1.05457 c -1.96925,-3.980213 -3.08217,-4.632482 -7.61673,-4.464075 -2.24133,0.08324 -1.31744,-1.785998 1.74368,-3.527865 4.52247,-2.57342 3.62793,-3.511601 -2.60566,-2.732766 -6.53334,0.816287 -7.11041,-0.794969 -1.31537,-3.672692 4.06804,-2.020123 3.22484,-2.133593 -3.74469,-0.503929 -5.17205,1.209364 -5.17205,1.209364 0.5,7.636236 4.85975,5.506481 13.89961,12.675421 14.82124,11.753801 0.1613,-0.1613 -0.64081,-2.18122 -1.78247,-4.48871 z m 6.65627,-12.412106 c -0.88282,-3.446002 -2.10288,-6.719478 -2.71124,-7.274391 -0.79219,-0.722585 -0.89423,-0.441307 -0.35956,0.991067 0.4106,1.1 1.48933,5.6 2.39718,10 1.0647,5.16023 1.76211,7.03249 1.96469,5.27439 0.17274,-1.499085 -0.40824,-5.545065 -1.29107,-8.991066 z M 155.16988,85.74604 c 3.41681,-3 3.41681,-3 -0.36798,-2.954896 -2.08164,0.02481 -5.1348,0.623418 -6.7848,1.330246 -3,1.285141 -3,1.285141 0,2.914858 3.8184,2.074302 3.19216,2.187261 7.15278,-1.290208 z m -12.65278,-3 c 1.29269,-0.835399 1.26629,-0.971491 -0.19098,-0.984687 -0.93004,-0.0084 -1.9691,0.434687 -2.30902,0.984687 -0.78218,1.265598 0.54163,1.265598 2.5,0 z m -62.881867,-3.25 c 0.653674,-1.2375 3.191985,-4.865021 5.640692,-8.061159 5.380306,-7.022562 5.108324,-8.710075 -0.316582,-1.964236 -2.112167,2.626467 -5.625615,6.462895 -7.807661,8.525395 -3.926442,3.711326 -3.940221,3.75 -1.336151,3.75 1.709844,0 3.047378,-0.787876 3.819702,-2.25 z m 60.811157,-1.782279 c 3.33889,-2.217753 6.07071,-4.222587 6.07071,-4.455186 0,-0.232599 -3.0375,0.697468 -6.75,2.066816 -12.16958,4.488726 -12.49269,4.650891 -11.06749,5.55461 2.60681,1.652968 5.77832,0.798116 11.74678,-3.16624 z m -54.883449,0.946633 c 1.601469,-2.992373 0.862679,-3.095822 -2.351601,-0.329282 -2.5143,2.164065 -2.595865,2.414928 -0.785183,2.414928 1.111319,0 2.522871,-0.938541 3.136784,-2.085646 z m 46.354729,-6.830755 c -0.22002,-0.22902 -2.94433,1.33592 -6.05402,3.477645 -5.23795,3.607518 -5.47711,3.937009 -3.25026,4.477933 1.92076,0.466575 3.13712,-0.232142 6.05401,-3.477645 2.00767,-2.233842 3.47029,-4.248912 3.25027,-4.477933 z M 94.281881,76.99604 c 1.09249,-0.9625 4.102149,-4.9 6.688129,-8.75 4.70179,-7 4.70179,-7 0.37444,-2 -2.380037,2.75 -6.033794,6.6875 -8.119453,8.75 -3.764273,3.722475 -2.853815,5.445385 1.056884,2 z m 27.321229,-1.5 c 1.22222,-1.7875 4.27344,-5.3875 6.78051,-8 7.21289,-7.516231 2.58889,-5.52008 -5.21203,2.25 -7.12646,7.098282 -10.20894,9.021331 -7.2695,4.535183 2.53282,-3.865574 1.91081,-3.994797 -1.77959,-0.369709 -1.86703,1.833989 -3.19047,3.672026 -2.94098,4.084526 0.24949,0.4125 2.19642,0.75 4.3265,0.75 3.24691,0 4.23207,-0.525301 6.09509,-3.25 z M 109.0397,74.03973 c 1.08757,-2.038471 3.67537,-5.863471 5.75065,-8.5 2.07529,-2.63653 3.35082,-4.79369 2.8345,-4.79369 -1.02827,0 -17.40244,14.719723 -17.941077,16.128307 -0.18334,0.479431 1.401827,0.871693 3.522587,0.871693 3.42531,0 4.07676,-0.413909 5.83334,-3.70631 z"
       id="path1" />
  </g>
</svg>
